<?xml version="1.0" encoding="UTF-8" standalone="no"?>
<!-- Created with Inkscape (http://www.inkscape.org/) -->

<svg
   width="128mm"
   height="128mm"
   viewBox="0 0 128 128"
   version="1.1"
   id="svg1"
   xml:space="preserve"
   inkscape:version="1.4 (e7c3feb100, 2024-10-09)"
   sodipodi:docname="inkscape image.svg"
   xmlns:inkscape="http://www.inkscape.org/namespaces/inkscape"
   xmlns:sodipodi="http://sodipodi.sourceforge.net/DTD/sodipodi-0.dtd"
   xmlns="http://www.w3.org/2000/svg"
   xmlns:svg="http://www.w3.org/2000/svg"><sodipodi:namedview
     id="namedview1"
     pagecolor="#ffffff"
     bordercolor="#000000"
     borderopacity="0.25"
     inkscape:showpageshadow="2"
     inkscape:pageopacity="0.0"
     inkscape:pagecheckerboard="0"
     inkscape:deskcolor="#d1d1d1"
     inkscape:document-units="mm"
     inkscape:zoom="4.05"
     inkscape:cx="273.82716"
     inkscape:cy="94.814815"
     inkscape:window-width="3440"
     inkscape:window-height="1403"
     inkscape:window-x="0"
     inkscape:window-y="0"
     inkscape:window-maximized="1"
     inkscape:current-layer="layer1" /><defs
     id="defs1"><inkscape:path-effect
       effect="fillet_chamfer"
       id="path-effect17"
       is_visible="true"
       lpeversion="1"
       nodesatellites_param="F,0,0,1,0,3.6987329,0,1 @ F,0,0,1,0,0,0,1"
       radius="0"
       unit="px"
       method="auto"
       mode="F"
       chamfer_steps="1"
       flexible="false"
       use_knot_distance="true"
       apply_no_radius="true"
       apply_with_radius="true"
       only_selected="false"
       hide_knots="false" /><inkscape:path-effect
       effect="fillet_chamfer"
       id="path-effect16"
       is_visible="true"
       lpeversion="1"
       nodesatellites_param="F,0,0,1,0,0,0,1 @ F,0,0,1,0,0,0,1"
       radius="0"
       unit="px"
       method="auto"
       mode="F"
       chamfer_steps="1"
       flexible="false"
       use_knot_distance="true"
       apply_no_radius="true"
       apply_with_radius="true"
       only_selected="false"
       hide_knots="false" /><inkscape:path-effect
       effect="fillet_chamfer"
       id="path-effect15"
       is_visible="true"
       lpeversion="1"
       nodesatellites_param="F,0,0,1,0,0,0,1 @ F,0,0,1,0,0,0,1"
       radius="0"
       unit="px"
       method="auto"
       mode="F"
       chamfer_steps="1"
       flexible="false"
       use_knot_distance="true"
       apply_no_radius="true"
       apply_with_radius="true"
       only_selected="false"
       hide_knots="false" /><linearGradient
       id="swatch12"
       inkscape:swatch="solid"><stop
         style="stop-color:#000000;stop-opacity:1;"
         offset="0"
         id="stop12" /></linearGradient><inkscape:perspective
       sodipodi:type="inkscape:persp3d"
       inkscape:vp_x="0 : -20.500004 : 1"
       inkscape:vp_y="0 : 999.99994 : 0"
       inkscape:vp_z="210 : -20.500004 : 1"
       inkscape:persp3d-origin="105 : -70.000003 : 1"
       id="perspective6" /></defs><g
     inkscape:label="Layer 1"
     inkscape:groupmode="layer"
     id="layer1"
     transform="translate(-85.312258,-128.70334)"><path
       style="fill:#33d17a;fill-opacity:1;stroke:none;stroke-width:1.0025;stroke-opacity:1"
       d="m 143.29411,252.16838 c -1.01682,-0.79966 -1.1219,-1.11728 -1.83633,-5.54551 -0.36234,-2.24442 -0.74236,-4.15067 -0.84421,-4.23617 -0.35471,-0.29756 -5.30599,-1.27506 -5.47314,-1.0806 -0.0909,0.10773 -1.23106,1.7179 -2.53043,3.5783 -2.61406,3.74332 -3.08698,4.09977 -5.16929,3.8998 -1.59622,-0.15329 -8.48988,-3.49454 -9.27826,-4.49707 -0.95682,-1.21654 -0.92486,-1.74444 0.38476,-6.31354 l 1.24395,-4.34125 -0.57,-0.39922 c -0.31377,-0.21974 -1.27558,-0.96552 -2.13719,-1.65687 l -1.56716,-1.25753 -0.80606,0.41482 c -0.44356,0.22815 -2.08082,1.13611 -3.63863,2.01825 -1.55792,0.88161 -3.18938,1.68077 -3.62485,1.77537 -1.61835,0.35136 -2.80028,-0.51505 -5.76429,-4.227 -2.710789,-3.39453 -3.100333,-4.05512 -3.100333,-5.25761 0,-1.31411 0.220132,-1.6393 3.513703,-5.18969 l 2.6443,-2.85135 -1.17966,-2.42755 c -0.6492,-1.33538 -1.21045,-2.46283 -1.24699,-2.50587 -0.038,-0.0449 -2.04029,0.0587 -4.452111,0.21788 -4.934012,0.33259 -5.395392,0.24284 -6.394857,-1.24163 -0.747023,-1.10998 -1.94227,-6.07776 -2.094355,-8.70489 -0.117108,-2.02267 -0.09878,-2.10577 0.653667,-2.96119 0.609381,-0.69276 1.60221,-1.20877 4.665214,-2.42474 l 3.891089,-1.54457 v -2.70474 -2.70476 l -3.891089,-1.54459 c -4.810225,-1.90959 -5.379299,-2.41768 -5.379299,-4.80558 0,-1.63382 1.055874,-6.83621 1.728898,-8.5183 0.21334,-0.53285 0.7484,-1.27263 1.189045,-1.64355 0.866179,-0.72866 1.135443,-0.73486 8.155028,-0.19587 l 1.9312,0.14794 1.20951,-2.51983 1.20896,-2.51984 -2.64171,-2.84735 c -3.287908,-3.54471 -3.510543,-3.87342 -3.510543,-5.18034 0,-1.16218 0.830141,-2.51926 3.614083,-5.90761 2.60749,-3.17402 3.70054,-3.92005 5.25054,-3.58347 0.43547,0.0934 2.06693,0.89382 3.62485,1.77537 1.55781,0.88217 3.19507,1.79014 3.63863,2.01829 l 0.80606,0.41488 1.56716,-1.25766 c 0.86161,-0.69132 1.82342,-1.43702 2.13719,-1.6569 l 0.57,-0.39904 -1.24395,-4.34152 c -1.30962,-4.56897 -1.34158,-5.09688 -0.38476,-6.31326 0.78838,-1.00261 7.68204,-4.34371 9.27826,-4.49722 2.08231,-0.20004 2.55523,0.15623 5.16929,3.89975 1.29937,1.86045 2.43803,3.47076 2.53043,3.57837 0.16521,0.19237 5.117,-0.78177 5.46677,-1.07517 0.0982,-0.0807 0.47745,-1.94653 0.84149,-4.14173 0.80938,-4.87396 0.76215,-4.72199 1.7167,-5.52537 l 0.77854,-0.65479 h 5.35322 c 7.18916,0 6.84575,-0.26554 7.86999,6.08027 0.36196,2.24447 0.74211,4.15063 0.84375,4.23621 0.35436,0.29683 5.30581,1.27528 5.46914,1.08058 0.0887,-0.10768 1.23953,-1.7218 2.55393,-3.58775 2.63371,-3.73926 3.09499,-4.08752 5.15006,-3.89037 1.59618,0.15338 8.48965,3.49461 9.27806,4.49722 0.95728,1.21638 0.92484,1.74429 -0.38475,6.31326 l -1.24401,4.34152 0.57037,0.39904 c 0.31346,0.21982 1.27523,0.96558 2.13697,1.6569 l 1.56699,1.25766 0.80632,-0.41488 c 0.44343,-0.22815 2.08061,-1.13612 3.63861,-2.01829 1.55824,-0.88155 3.18935,-1.68086 3.6247,-1.77537 1.54996,-0.33658 2.64298,0.40945 5.25054,3.58347 2.78409,3.38835 3.6143,4.74543 3.6143,5.90761 0,1.30692 -0.22297,1.63563 -3.5108,5.18034 l -2.64169,2.84735 1.2095,2.51984 1.20899,2.51983 1.93132,-0.14794 c 7.01956,-0.53917 7.28879,-0.53297 8.15478,0.19587 0.441,0.37092 0.97585,1.1107 1.18909,1.64355 0.67307,1.68209 1.72895,6.88448 1.72895,8.5183 0,2.3856 -0.57024,2.89512 -5.37731,4.806 l -3.88681,1.54492 -0.003,2.71071 -0.003,2.71089 3.8899,1.53788 c 3.06649,1.21258 4.05433,1.7249 4.66532,2.41858 0.7536,0.85567 0.77161,0.93782 0.65445,2.96119 -0.15179,2.62713 -1.34727,7.59491 -2.09409,8.70489 -0.99963,1.48462 -1.4611,1.57422 -6.39482,1.24163 -2.41183,-0.16204 -4.41258,-0.26042 -4.44565,-0.21788 -0.035,0.0449 -0.5933,1.1716 -1.24463,2.50791 l -1.18459,2.43042 2.6424,2.84858 c 3.2912,3.5481 3.51171,3.87355 3.51171,5.18755 0,1.20249 -0.38981,1.86308 -3.10051,5.25761 -2.96415,3.71195 -4.14574,4.57836 -5.76435,4.227 -0.43533,-0.0934 -2.06648,-0.89376 -3.62472,-1.77537 -1.55799,-0.88214 -3.19515,-1.7901 -3.63857,-2.01825 l -0.80632,-0.41482 -1.56701,1.25753 c -0.86172,0.69135 -1.8235,1.43704 -2.137,1.65687 l -0.57031,0.39922 1.244,4.34125 c 1.30959,4.5691 1.34196,5.097 0.38474,6.31354 -0.7884,1.00253 -7.68193,4.34362 -9.2781,4.49707 -2.05507,0.19724 -2.51629,-0.15104 -5.15002,-3.89033 -1.3144,-1.86577 -2.46339,-3.48014 -2.55398,-3.58777 -0.16309,-0.19488 -5.11474,0.78381 -5.46907,1.0806 -0.10164,0.0836 -0.48183,1.99175 -0.84387,4.23617 -0.71477,4.42823 -0.81983,4.74585 -1.83626,5.54551 -0.63886,0.50253 -1.0038,0.53482 -6.01853,0.53482 -5.01472,0 -5.37964,-0.0343 -6.01817,-0.53482 z"
       id="path1" /><circle
       style="opacity:1;fill:#000000;fill-opacity:1;stroke:none;stroke-width:1.63694;stroke-dasharray:none;stroke-opacity:1"
       id="path12"
       cy="192.70428"
       cx="149.31226"
       r="39.183632" /><g
       id="g18"
       transform="matrix(3.2360435,0,0,3.2360435,-191.5509,-287.78626)"
       style="stroke-width:0.309019"><circle
         style="fill:#33d17a;fill-opacity:1;stroke-width:0.121335;stroke-dasharray:none"
         id="path5"
         cx="100.66191"
         cy="148.48087"
         r="4.0260868"
         inkscape:transform-center-x="4.583782"
         inkscape:transform-center-y="0.1547579" /><path
         style="fill:#33d17a;fill-opacity:1;stroke:none;stroke-width:0.0877782;stroke-dasharray:none;stroke-opacity:1"
         d="m 107.1416,148.3507 c 0.1863,-0.0844 6.60651,-3.64857 6.88919,-3.82938 -0.007,6.30319 -0.003,7.93647 -0.003,7.93647 -1.25229,-0.8069 -5.78806,-3.4754 -6.88619,-4.10709 z"
         id="path15"
         sodipodi:nodetypes="cccc"
         inkscape:transform-center-x="-4.7538999"
         inkscape:transform-center-y="0.02081176" /></g></g></svg>
