<?xml version="1.0" encoding="UTF-8"?>
<!-- Created with Inkscape (http://www.inkscape.org/) -->
<svg width="128mm" height="128mm" version="1.1" viewBox="0 0 128 128" xml:space="preserve" xmlns="http://www.w3.org/2000/svg"><g transform="translate(-85.312 -128.7)"><path d="m143.29 252.17c-1.0168-0.79966-1.1219-1.1173-1.8363-5.5455-0.36234-2.2444-0.74236-4.1507-0.84421-4.2362-0.35471-0.29756-5.306-1.2751-5.4731-1.0806-0.0909 0.10773-1.2311 1.7179-2.5304 3.5783-2.6141 3.7433-3.087 4.0998-5.1693 3.8998-1.5962-0.15329-8.4899-3.4945-9.2783-4.4971-0.95682-1.2165-0.92486-1.7444 0.38476-6.3135l1.244-4.3412-0.57-0.39922c-0.31377-0.21974-1.2756-0.96552-2.1372-1.6569l-1.5672-1.2575-0.80606 0.41482c-0.44356 0.22815-2.0808 1.1361-3.6386 2.0182-1.5579 0.88161-3.1894 1.6808-3.6248 1.7754-1.6184 0.35136-2.8003-0.51505-5.7643-4.227-2.7108-3.3945-3.1003-4.0551-3.1003-5.2576 0-1.3141 0.22013-1.6393 3.5137-5.1897l2.6443-2.8514-1.1797-2.4276c-0.6492-1.3354-1.2104-2.4628-1.247-2.5059-0.038-0.0449-2.0403 0.0587-4.4521 0.21788-4.934 0.33259-5.3954 0.24284-6.3949-1.2416-0.74702-1.11-1.9423-6.0778-2.0944-8.7049-0.11711-2.0227-0.09878-2.1058 0.65367-2.9612 0.60938-0.69276 1.6022-1.2088 4.6652-2.4247l3.8911-1.5446v-5.4095l-3.8911-1.5446c-4.8102-1.9096-5.3793-2.4177-5.3793-4.8056 0-1.6338 1.0559-6.8362 1.7289-8.5183 0.21334-0.53285 0.7484-1.2726 1.189-1.6436 0.86618-0.72866 1.1354-0.73486 8.155-0.19587l1.9312 0.14794 1.2095-2.5198 1.209-2.5198-2.6417-2.8474c-3.2879-3.5447-3.5105-3.8734-3.5105-5.1803 0-1.1622 0.83014-2.5193 3.6141-5.9076 2.6075-3.174 3.7005-3.92 5.2505-3.5835 0.43547 0.0934 2.0669 0.89382 3.6248 1.7754 1.5578 0.88217 3.1951 1.7901 3.6386 2.0183l0.80606 0.41488 1.5672-1.2577c0.86161-0.69132 1.8234-1.437 2.1372-1.6569l0.57-0.39904-1.244-4.3415c-1.3096-4.569-1.3416-5.0969-0.38476-6.3133 0.78838-1.0026 7.682-4.3437 9.2783-4.4972 2.0823-0.20004 2.5552 0.15623 5.1693 3.8998 1.2994 1.8604 2.438 3.4708 2.5304 3.5784 0.16521 0.19237 5.117-0.78177 5.4668-1.0752 0.0982-0.0807 0.47745-1.9465 0.84149-4.1417 0.80938-4.874 0.76215-4.722 1.7167-5.5254l0.77854-0.65479h5.3532c7.1892 0 6.8458-0.26554 7.87 6.0803 0.36196 2.2445 0.74211 4.1506 0.84375 4.2362 0.35436 0.29683 5.3058 1.2753 5.4691 1.0806 0.0887-0.10768 1.2395-1.7218 2.5539-3.5878 2.6337-3.7393 3.095-4.0875 5.1501-3.8904 1.5962 0.15338 8.4896 3.4946 9.2781 4.4972 0.95728 1.2164 0.92484 1.7443-0.38475 6.3133l-1.244 4.3415 0.57037 0.39904c0.31346 0.21982 1.2752 0.96558 2.137 1.6569l1.567 1.2577 0.80632-0.41488c0.44343-0.22815 2.0806-1.1361 3.6386-2.0183 1.5582-0.88155 3.1894-1.6809 3.6247-1.7754 1.55-0.33658 2.643 0.40945 5.2505 3.5835 2.7841 3.3884 3.6143 4.7454 3.6143 5.9076 0 1.3069-0.22297 1.6356-3.5108 5.1803l-2.6417 2.8474 1.2095 2.5198 1.209 2.5198 1.9313-0.14794c7.0196-0.53917 7.2888-0.53297 8.1548 0.19587 0.441 0.37092 0.97585 1.1107 1.1891 1.6436 0.67307 1.6821 1.729 6.8845 1.729 8.5183 0 2.3856-0.57024 2.8951-5.3773 4.806l-3.8868 1.5449-3e-3 2.7107-3e-3 2.7109 3.8899 1.5379c3.0665 1.2126 4.0543 1.7249 4.6653 2.4186 0.7536 0.85567 0.77161 0.93782 0.65445 2.9612-0.15179 2.6271-1.3473 7.5949-2.0941 8.7049-0.99963 1.4846-1.4611 1.5742-6.3948 1.2416-2.4118-0.16204-4.4126-0.26042-4.4456-0.21788-0.035 0.0449-0.5933 1.1716-1.2446 2.5079l-1.1846 2.4304 2.6424 2.8486c3.2912 3.5481 3.5117 3.8736 3.5117 5.1876 0 1.2025-0.38981 1.8631-3.1005 5.2576-2.9642 3.712-4.1457 4.5784-5.7644 4.227-0.43533-0.0934-2.0665-0.89376-3.6247-1.7754-1.558-0.88214-3.1952-1.7901-3.6386-2.0182l-0.80632-0.41482-1.567 1.2575c-0.86172 0.69135-1.8235 1.437-2.137 1.6569l-0.57031 0.39922 1.244 4.3412c1.3096 4.5691 1.342 5.097 0.38474 6.3135-0.7884 1.0025-7.6819 4.3436-9.2781 4.4971-2.0551 0.19724-2.5163-0.15104-5.15-3.8903-1.3144-1.8658-2.4634-3.4801-2.554-3.5878-0.16309-0.19488-5.1147 0.78381-5.4691 1.0806-0.10164 0.0836-0.48183 1.9918-0.84387 4.2362-0.71477 4.4282-0.81983 4.7458-1.8363 5.5455-0.63886 0.50253-1.0038 0.53482-6.0185 0.53482-5.0147 0-5.3796-0.0343-6.0182-0.53482z" fill="#33d17a"/><circle cx="149.31" cy="192.7" r="39.184"/><g transform="matrix(3.236 0 0 3.236 -191.55 -287.79)" fill="#33d17a" stroke-width=".30902"><circle cx="100.66" cy="148.48" r="4.0261" stroke-width=".12134"/><path d="m107.14 148.35c0.1863-0.0844 6.6065-3.6486 6.8892-3.8294-7e-3 6.3032-3e-3 7.9365-3e-3 7.9365-1.2523-0.8069-5.7881-3.4754-6.8862-4.1071z"/></g></g></svg>
