<?xml version="1.0" encoding="UTF-8" standalone="no"?>
<!-- Created with Inkscape (http://www.inkscape.org/) -->

<svg
   width="53.918465mm"
   height="56.763432mm"
   viewBox="0 0 53.918465 56.763432"
   version="1.1"
   id="svg1"
   xml:space="preserve"
   inkscape:version="1.3.2 (091e20ef0f, 2023-11-25)"
   sodipodi:docname="sysd-manager.logo.svg"
   xmlns:inkscape="http://www.inkscape.org/namespaces/inkscape"
   xmlns:sodipodi="http://sodipodi.sourceforge.net/DTD/sodipodi-0.dtd"
   xmlns="http://www.w3.org/2000/svg"
   xmlns:svg="http://www.w3.org/2000/svg"
   xmlns:rdf="http://www.w3.org/1999/02/22-rdf-syntax-ns#"
   xmlns:cc="http://creativecommons.org/ns#"
   xmlns:dc="http://purl.org/dc/elements/1.1/"><title
     id="title5">Cogs</title><sodipodi:namedview
     id="namedview1"
     pagecolor="#ffffff"
     bordercolor="#000000"
     borderopacity="0.25"
     inkscape:showpageshadow="2"
     inkscape:pageopacity="0.0"
     inkscape:pagecheckerboard="0"
     inkscape:deskcolor="#d1d1d1"
     inkscape:document-units="mm"
     inkscape:zoom="1.5301741"
     inkscape:cx="86.591454"
     inkscape:cy="115.99987"
     inkscape:window-width="3440"
     inkscape:window-height="1403"
     inkscape:window-x="0"
     inkscape:window-y="0"
     inkscape:window-maximized="1"
     inkscape:current-layer="svg1" /><defs
     id="defs1" /><circle
     style="display:inline;fill:#ffff00;fill-opacity:1;stroke-width:0.230617"
     id="path2-6"
     cx="26.959221"
     cy="28.381712"
     r="13.249998" /><circle
     style="display:inline;fill:#999999;fill-opacity:1;stroke-width:0.32287"
     id="path2"
     cx="27.579102"
     cy="28.513762"
     r="17.5" /><g
     inkscape:label="Layer 1"
     inkscape:groupmode="layer"
     id="layer1"
     style="display:inline"
     transform="translate(-81.645675,-107.83806)" /><circle
     style="display:inline;fill:#f9f9f9;fill-opacity:1;stroke-width:0.0761327"
     id="path2-6-2"
     cx="26.959824"
     cy="28.381437"
     r="4.1265001" /><path
     style="display:inline;fill:#000000;stroke-width:2.28015"
     d="m 12.675459,53.55103 0.063,-0.48498 c 0.81489,-1.79905 1.65976,-3.84729 2.46875,-5.71685 l -0.13299,-0.20733 C 13.041942,45.16005 11.048332,43.1578 9.220199,40.988 l -0.64321,0.15582 -0.6432,0.15581 -2.30567,0.8079 -2.305669,0.80792 H 3.13578 2.94912 L 2.268,41.39853 1.58688,39.88163 0.79343,37.83072 0,35.77984 0.48748,35.38027 0.97497,34.9807 l 2.47241,-1.25872 2.472389,-1.25872 0.0549,-3.98758 0.0549,-3.98758 -0.28561,-0.24792 C 3.920745,23.13806 1.921441,22.26538 0.00445,21.30167 0.42912,19.78312 0.46285,19.32864 2.88358,13.9731 l 0.35938,-0.22841 c 1.909282,0.80969 3.87339,1.46779 5.833449,2.14046 l 0.85685,-0.9961 c 0.237553,-0.27615 3.027675,-3.4656 4.55501,-4.73704 l 0.65157,-0.54239 c -1.63057,-4.63518 -0.0768,0.21133 -2.53187,-6.2232 C 14.849269,2.01855 17.242397,0.99786 19.658965,0 l 0.13538,0.13617 0.13539,0.13616 1.42809,2.8527 1.42808,2.8527 8.3781,0.014 1.428,-2.87018 1.42802,-2.87017 0.23236,-0.0915 0.23236,-0.0916 c 3.76578,1.63718 5.92912,2.68176 6.54712,3.15714 l 0.34731,0.26715 c -0.17373,1.3742 -2.29353,5.06153 -2.43439,6.10106 1.34179,1.23167 2.98982,3.0207 5.87814,6.32958 2.08016,-0.74112 3.97903,-1.42848 5.93072,-2.22174 1.51487,2.19799 3.16482,6.8477 3.16482,7.62088 -1.9806,1.15498 -4.32865,1.71899 -6.03528,3.2931 0.62511,3.89713 -0.13716,7.04114 0.0704,7.63359 1.67791,1.28199 4.02332,2.23611 5.96474,3.25551 0,0.68843 -0.98981,3.52957 -2.94296,7.41214 h -0.007 -0.007 c -1.9974,-0.67484 -3.96984,-1.41284 -6.01826,-1.92209 l -5.97185,6.24091 c 0.42173,2.13779 2.04842,4.11595 2.28512,6.34859 -1.72285,0.90655 -5.25435,2.6765 -7.24304,3.06026 l -1.42433,-2.99321 -1.42433,-2.99319 -8.33885,0.049 -1.44772,3.00073 -1.4477,3.00074 -0.19768,0.055 z m 18.688146,-9.34477 1.53232,-0.46238 1.15927,-0.60155 1.15927,-0.60155 0.83101,-0.58234 0.83101,-0.58231 1.24479,-1.33453 1.24479,-1.33452 0.57918,-0.78294 0.57915,-0.78293 0.68919,-1.46799 0.68919,-1.46798 0.28146,-0.88079 0.28146,-0.88079 0.22761,-1.21533 0.22762,-1.21533 -0.0958,-2.4057 -0.0958,-2.40569 -0.36998,-1.37013 -0.36995,-1.37012 -0.60164,-1.29373 -0.60164,-1.29372 -1.15254,-1.59469 -1.15257,-1.5947 -1.37341,-1.16838 -1.37341,-1.16835 -1.7137,-0.87205 -1.71371,-0.87208 -0.80924,-0.20922 -0.80926,-0.20898 -0.73613,-0.19581 -0.73613,-0.19581 h -2.18683 -2.18684 l -0.55203,0.17131 -0.55205,0.1713 -1.04727,0.25 -1.04725,0.24999 -0.28562,0.14588 -0.28561,0.14564 -0.85494,0.36263 -0.85494,0.3626 -1.430003,1.09401 -1.430003,1.09398 -0.86614,0.9612 -0.86614,0.96117 -0.76487,1.17439 -0.76487,1.17439 -0.39129,0.88079 -0.39132,0.88079 -0.38257,1.17439 -0.38255,1.17438 -0.2132,0.93256 -0.2132,0.93253 v 2.24527 2.2453 l 0.21927,0.93253 0.21928,0.93253 0.37656,1.17439 0.37659,1.17439 0.65253,1.30644 0.65254,1.30643 c 0.007,0.004 0.002,0.13545 0.54962,0.91832 l 1.66609,1.67706 1.666118,1.67709 1.047248,0.68234 1.04727,0.68235 0.85686,0.39305 0.85685,0.39305 1.14247,0.34312 1.14247,0.34311 0.19048,0.0654 0.19049,0.0654 2.85617,0.0116 2.85617,0.0116 z m -6.19742,-1.40251 -0.47604,-0.0855 -1.04725,-0.23605 -1.04727,-0.23608 -1.5048,-0.75353 -1.50479,-0.75353 -1.12839,-0.89253 -1.128398,-0.89254 -0.851228,-1.10214 -0.85123,-1.10213 -0.66066,-1.19986 -0.66065,-1.19984 -0.5095,-1.44253 -0.5095,-1.44251 -0.0758,-2.66808 -0.0758,-2.66808 0.40807,-1.52907 0.4081,-1.52906 0.74915,-1.47908 0.74915,-1.47906 0.95981,-1.2184 0.959828,-1.21841 1.163548,-0.96778 1.16356,-0.96779 1.1642,-0.59214 1.16421,-0.59216 0.95205,-0.33399 0.95207,-0.33398 2.45827,-0.0925 2.45829,-0.0925 1.06434,0.23615 1.06431,0.23614 2.09479,1.02526 2.09479,1.02525 1.52304,1.55265 1.52303,1.55266 0.81131,1.40717 0.81133,1.40716 0.58054,1.82164 0.58055,1.82164 v 2.5445 2.54451 l -0.56867,1.78426 -0.56865,1.78424 -0.62082,1.05385 -0.62081,1.05385 -0.92944,1.17439 -0.92944,1.17439 -1.17706,0.93574 -1.17708,0.93574 -1.23436,0.61291 -1.23436,0.61292 -1.14578,0.36207 -1.14577,0.3621 -1.99932,0.0825 -1.99932,0.0825 z m -0.13022,-2.85268 0.4159,-0.22401 0.7156,-0.65777 0.71561,-0.65775 1.05312,0.88174 1.0531,0.88173 h 0.16125 0.16102 l 1.02152,-0.32771 1.02154,-0.32772 0.2168,-0.16738 0.2168,-0.16737 0.13269,-1.09179 0.13269,-1.09179 0.60256,0.13154 0.60256,0.13155 0.58723,0.10564 0.5872,0.10565 0.91868,-1.10536 0.91865,-1.10535 -0.20443,-0.91799 -0.20443,-0.91801 0.0868,-0.14426 0.0868,-0.14425 0.92508,-0.12623 0.92508,-0.12622 0.33102,-1.10284 0.33105,-1.10286 0.0787,-0.14449 0.0787,-0.14448 -0.89917,-0.98816 -0.89915,-0.98812 0.42374,-0.30511 0.42375,-0.30509 0.49853,-0.44079 0.4985,-0.44079 -0.24901,-0.95967 -0.249,-0.95967 -0.25631,-0.42784 -0.25632,-0.42784 -0.87559,-0.13501 -0.87561,-0.13501 -0.1876,-0.50249 0.18352,-0.65393 0.18351,-0.65391 0.12595,-0.31529 0.12594,-0.31528 -0.98136,-1.10376 -0.98137,-1.10379 h -0.4285 -0.42851 l -0.61408,0.22008 -0.61408,0.22009 -0.36208,-0.3722 -0.11514,-0.9995 -0.11515,-0.9995 -0.49862,-0.1861 -0.49861,-0.1861 -0.80261,-0.2475 -0.80261,-0.2475 -1.0239,0.81199 -1.02388,0.81199 h -0.32205 l -1.0591,-0.8543 -1.05912,-0.85432 -0.99888,0.32224 -0.99889,0.32227 -0.30757,0.31616 -0.30757,0.31616 -0.0994,0.90546 -0.0992,0.90545 -0.26538,0.1688 -0.86881,-0.26876 -0.86882,-0.2688 -0.36829,0.26519 -0.36829,0.26516 -0.72387,0.90805 -0.723878,0.90807 0.317375,1.01011 0.31735,1.01009 -0.658805,0.49519 h -0.60814 -0.608138 l -0.28974,0.45454 -0.28973,0.45457 -0.24075,0.82595 -0.24073,0.82593 0.92983,0.97042 0.929858,0.97042 -0.892498,0.93142 -0.89248,0.93144 0.27977,0.95563 0.27979,0.95562 0.19724,0.24424 0.19723,0.24424 0.874618,0.22633 0.874605,0.22632 -0.11133,0.62721 -0.11132,0.62724 -0.1129,0.39339 -0.112905,0.39338 1.009908,1.11525 1.00991,1.11525 c 0.63391,-0.12483 1.25194,-0.48366 1.89974,-0.30585 l 0.29,0.11444 c 0.23529,0.29031 0.17086,-0.004 0.29434,0.87445 0.0556,0.70158 -0.005,0.96492 0.14691,1.48662 0.71985,0.079 1.43576,0.29211 2.12946,0.55542 l 0.0601,0.0139 0.06,0.0139 z m 0.21478,-7.58299 -0.77227,-0.36057 -0.68092,-0.8177 -0.68089,-0.8177 -0.23778,-0.873 -0.23778,-0.87298 0.11132,-0.70544 0.11132,-0.70544 0.4079,-0.81109 0.40791,-0.81109 0.31011,-0.35773 0.31011,-0.3577 0.83856,-0.39268 0.83857,-0.39268 0.64147,-0.10704 0.64147,-0.10704 0.90419,0.26024 0.9042,0.26024 0.87182,0.89619 0.87183,0.89619 0.22378,0.91311 0.22377,0.91311 -0.001,0.45158 -10e-4,0.45159 -0.20195,0.74786 -0.20196,0.74784 -0.70136,0.79967 -0.70138,0.79965 -0.76165,0.35657 -0.76163,0.35657 h -0.95208 -0.95205 z m 4.49598,-2.80864 0.0415,-2.2606 -1.40546,-1.57146 -2.32783,-0.0876 c 0,0 -0.10705,0.0306 -1.84145,1.73594 v 2.28138 l 1.6636,1.71008 h 2.08831 c 0.4315,-0.29814 1.34962,-1.50941 1.78101,-1.80771 z"
     id="path1"
     sodipodi:nodetypes="cccccccccccccccccccccccccccccccccccccccccccccccccccccccccccccccccccccccccccccccccccccccccccccccccccccccccccccccccccccccccccccccccccccccccccccccccccccccccccccccccccccccccccccccccccccccccccccccccccccccccccccccccccccccccccccccccccccccccccccccccccccccccccccccccccccccccccccccccccccccccccccccccccccccccccccccccccccccccccccccccccccccccccccccccccccccccccccc" /><metadata
     id="metadata5"><rdf:RDF><cc:Work
         rdf:about=""><dc:title>Cogs</dc:title></cc:Work></rdf:RDF></metadata></svg>
