<?xml version="1.0" encoding="UTF-8" standalone="no"?>
<svg
   viewBox="0 0 16 16"
   width="16"
   height="16"
   version="1.1"
   id="svg1"
   xmlns="http://www.w3.org/2000/svg"
   xmlns:svg="http://www.w3.org/2000/svg">
  <defs
     id="defs1" />
  <path
     d="M 7.9999997,-0.0624999 C 4.4652779,-0.0624999 1.6,0.89305565 1.6,2.0708334 c 0,0 0,2.8736109 0,6.0444443 C 1.6,9.9222216 3.526389,14.9 7.9999997,15.9375 12.473612,14.9 14.4,9.9222216 14.4,8.1152777 c 0,-3.1708334 0,-6.0444443 0,-6.0444443 0,-1.17777775 -2.865278,-2.1333333 -6.4000003,-2.1333333 z m -2.8444442,3.2 c 1.2222218,0 1.8472229,1.0930555 1.9777779,1.2222222 0.2083333,0.2083334 0.2083333,0.5472223 0,0.7541667 -0.2083333,0.2083331 -0.5472216,0.2083331 -0.7541671,0 C 6.2319446,4.9680558 5.7555553,3.8486111 4.8,3.8486111 4.3069442,3.8486111 3.7166667,4.076389 3.0222223,4.5597222 3.6819447,3.4499998 4.4458332,3.1375001 5.1555555,3.1375001 Z M 6.2222219,5.8041667 C 5.8958332,6.1263888 5.3833332,6.3374999 4.8,6.3374999 4.2166667,6.3374999 3.7041667,6.1263888 3.3777778,5.8041667 3.7041667,5.4819445 4.2166667,5.2708333 4.8,5.2708333 c 0.5833332,0 1.0958332,0.2111112 1.4222219,0.5333334 z M 8.7111108,14.515277 7.9999997,15.226389 7.2888888,14.515277 v -1.777778 h 1.422222 z M 11.199999,11.315278 H 8.7111108 L 7.9999997,10.604166 7.2888888,11.315278 H 4.8 L 3.0222223,8.4708333 5.1555555,10.248611 H 6.5777779 L 7.644445,9.1819444 h 0.7111109 l 1.066666,1.0666666 H 10.844445 L 12.977778,8.4708333 Z M 9.777778,5.8041667 c 0.326389,-0.3222222 0.838889,-0.5333334 1.422221,-0.5333334 0.583335,0 1.095833,0.2111112 1.422223,0.5333334 -0.32639,0.3222221 -0.838888,0.5333332 -1.422223,0.5333332 -0.583332,0 -1.095832,-0.2111111 -1.422221,-0.5333332 z m 1.422221,-1.9555556 c -0.955554,0 -1.4319446,1.1194447 -1.5777767,1.2666667 -0.2083328,0.2083334 -0.5472228,0.2083334 -0.7541671,0 -0.2083334,-0.2083332 -0.2083334,-0.5472221 0,-0.7541669 0.1291672,-0.1305553 0.7541671,-1.2236108 1.9763898,-1.2236108 0.709721,0 1.473611,0.3124997 2.133333,1.4222221 C 12.283334,4.076389 11.693055,3.8486111 11.199999,3.8486111 Z"
     id="path1"
     style="stroke-width:1" />
</svg>
