<?xml version="1.0" encoding="UTF-8" standalone="no"?>
<svg
   viewBox="0 0 16 16"
   width="16"
   height="16"
   version="1.1"
   id="svg1"
   xmlns="http://www.w3.org/2000/svg"
   xmlns:svg="http://www.w3.org/2000/svg">
  <defs
     id="defs1" />
  <path
     d="M 8,0 C 4.4652779,0 1.6,0.9555556 1.6,2.1333334 V 8.177778 C 1.6,9.984722 3.526389,14.9625 8,16 12.473611,14.9625 14.4,9.984722 14.4,8.177778 V 2.1333334 C 14.4,0.9555556 11.534722,0 8,0 Z m 0,0.7111111 c 3.733333,0 5.688889,1.0569444 5.688889,1.4222223 V 8.177778 c 0,1.470833 -1.540278,5.519445 -4.977778,6.861111 V 12.8 H 7.288889 v 2.238889 C 3.8513888,13.697223 2.3111111,9.648611 2.3111111,8.177778 V 2.1333334 C 2.3111111,1.7680555 4.2666667,0.7111111 8,0.7111111 Z M 5.155556,3.2000001 C 4.4458333,3.2000001 3.6819446,3.5125 3.0222223,4.6222223 3.7166667,4.138889 4.3069444,3.9111112 4.8,3.9111112 c 0.955556,0 1.431945,1.1194446 1.577778,1.2666667 0.208333,0.2083335 0.545833,0.2083335 0.755555,0 0.208334,-0.2083332 0.208334,-0.5458333 0,-0.7555556 C 7.002778,4.2930557 6.377778,3.2000001 5.155556,3.2000001 Z m 5.688889,0 c -1.222223,0 -1.847222,1.0930556 -1.977778,1.2222222 -0.208333,0.2097223 -0.208333,0.5472224 0,0.7555556 0.209722,0.2083335 0.547222,0.2083335 0.755555,0 C 9.768056,5.0305558 10.244445,3.9111112 11.2,3.9111112 c 0.493056,0 1.083333,0.2277778 1.777778,0.7111111 C 12.318056,3.5125 11.554167,3.2000001 10.844445,3.2000001 Z M 4.8,5.3333334 c -0.5833333,0 -1.0958332,0.2111111 -1.4222222,0.5333334 C 3.7041668,6.188889 4.2166667,6.4000001 4.8,6.4000001 c 0.583333,0 1.095833,-0.2111111 1.422222,-0.5333333 C 5.895833,5.5444445 5.383333,5.3333334 4.8,5.3333334 Z m 6.4,0 c -0.583333,0 -1.095833,0.2111111 -1.422222,0.5333334 0.326389,0.3222222 0.838889,0.5333333 1.422222,0.5333333 0.583333,0 1.095833,-0.2111111 1.422222,-0.5333333 C 12.295833,5.5444445 11.783333,5.3333334 11.2,5.3333334 Z M 3.0222223,8.533333 4.8,11.377778 H 7.288889 L 8,10.666667 8.711111,11.377778 H 11.2 l 1.777778,-2.844445 -2.133333,1.777778 H 9.422222 L 8.355556,9.244445 H 7.644445 L 6.577778,10.311111 H 5.155556 Z"
     id="path1"
     style="stroke-width:1" />
</svg>
