<?xml version="1.0" encoding="UTF-8" standalone="no"?>
<svg
   width="32mm"
   height="32mm"
   viewBox="0 0 32 32"
   version="1.1"
   id="svg2"
   sodipodi:docname="match-whole-word-symbolic.svg"
   inkscape:version="1.4.3 (0d15f75042, 2025-12-25)"
   xmlns:inkscape="http://www.inkscape.org/namespaces/inkscape"
   xmlns:sodipodi="http://sodipodi.sourceforge.net/DTD/sodipodi-0.dtd"
   xmlns="http://www.w3.org/2000/svg"
   xmlns:svg="http://www.w3.org/2000/svg">
  <defs
     id="defs2" />
  <sodipodi:namedview
     id="namedview2"
     pagecolor="#ffffff"
     bordercolor="#000000"
     borderopacity="0.25"
     inkscape:showpageshadow="2"
     inkscape:pageopacity="0.0"
     inkscape:pagecheckerboard="0"
     inkscape:deskcolor="#d1d1d1"
     inkscape:document-units="mm"
     inkscape:zoom="9.8557292"
     inkscape:cx="68.589547"
     inkscape:cy="52.456798"
     inkscape:window-width="3440"
     inkscape:window-height="1403"
     inkscape:window-x="0"
     inkscape:window-y="0"
     inkscape:window-maximized="1"
     inkscape:current-layer="svg2" />
  <g
     fill="#000000"
     id="g2"
     transform="matrix(1.077273,0,0,1.0004216,-1.236367,-0.00518454)"
     style="stroke-width:0.963265">
    <g
       id="g3">
      <path
         style="font-size:27.2969px;stroke-width:0.277419"
         d="m -33.160166,0.94033265 h 5.651312 V 2.4614552 H -30.70771 V 23.757169 h 3.198856 v 1.521122 h -5.651312 z"
         transform="matrix(0,-0.81933204,1.2205064,0,0,0)"
         aria-label="["
         id="path1"
         sodipodi:nodetypes="ccccccccc" />
    </g>
  </g>
  <path
     d="m 15.413023,15.727655 q 0,2.476912 -1.896386,3.895977 -1.883485,1.406164 -5.2505383,1.406164 -3.0316378,0 -4.9409246,-1.277158 Q 1.4158874,18.475479 0.87406275,16.037269 L 4.5507298,15.559947 q 0.2967135,1.212655 1.2384563,1.922187 0.9417428,0.696632 2.5801173,0.696632 1.7028776,0 2.5156146,-0.541825 0.825637,-0.541824 0.825637,-1.689976 0,-0.851439 -0.722433,-1.431965 Q 10.26569,13.921573 8.8853268,13.586157 6.1117008,12.915327 4.9635486,12.425105 3.828297,11.921982 3.1445659,11.302754 2.4608349,10.683525 2.0867179,9.8578879 1.7255014,9.0193498 1.7255014,7.9873029 q 0,-2.2576026 1.8060821,-3.5734624 1.8189827,-1.3158598 4.7861175,-1.3158598 2.889731,0 4.515205,1.1481522 1.625474,1.1352515 2.102796,3.5347606 l -3.689568,0.374117 Q 10.678508,5.7942032 8.2402975,5.7942032 q -1.3674621,0 -2.089895,0.5160235 -0.7224328,0.5031228 -0.7224328,1.4577662 0,0.6321287 0.3483158,1.0578481 0.3483158,0.4128187 0.9417428,0.7095322 0.6063276,0.2838129 2.4511114,0.7611348 2.4253103,0.593427 3.7282693,1.32876 1.302959,0.722433 1.909287,1.75448 0.606327,1.032047 0.606327,2.347907 z m 7.288831,5.044129 v -8.488586 q 0,-1.922187 -0.245111,-2.6704213 -0.23221,-0.748234 -0.87724,-0.748234 -0.657929,0 -1.044947,1.2126553 -0.374117,1.212655 -0.374117,3.186445 v 7.508141 H 17.206205 V 9.7933849 q 0,-2.4382108 -0.0774,-2.9800354 h 2.696223 l 0.0774,1.6383745 v 0.6192281 h 0.0258 q 0.43862,-1.3158598 1.109451,-1.9092868 0.67083,-0.6063275 1.677076,-0.6063275 1.135252,0 1.689977,0.6192281 0.567626,0.6192282 0.812737,1.9092868 h 0.0258 q 0.516023,-1.3674621 1.225556,-1.9479885 0.722432,-0.5805264 1.818982,-0.5805264 1.522269,0 2.180199,1.1094504 0.65793,1.1094504 0.65793,3.8056728 v 9.301323 h -2.941333 v -8.488586 q 0,-1.922187 -0.245112,-2.6704213 -0.23221,-0.748234 -0.877239,-0.748234 -0.65793,0 -1.044948,1.0449475 -0.374117,1.0320468 -0.374117,3.1090408 v 7.753253 z"
     id="text1"
     style="font-weight:bold;font-size:26.4204px;font-family:'Liberation Mono';-inkscape-font-specification:'Liberation Mono, Bold';stroke-width:0.287999"
     aria-label="Sm" />
</svg>
