<?xml version="1.0" encoding="UTF-8" standalone="no"?>
<svg
   width="32mm"
   height="32mm"
   viewBox="0 0 32 32"
   version="1.1"
   id="svg2"
   sodipodi:docname="match-whole-word-symbolic.svg"
   inkscape:version="1.4.3 (0d15f75042, 2025-12-25)"
   xmlns:inkscape="http://www.inkscape.org/namespaces/inkscape"
   xmlns:sodipodi="http://sodipodi.sourceforge.net/DTD/sodipodi-0.dtd"
   xmlns="http://www.w3.org/2000/svg"
   xmlns:svg="http://www.w3.org/2000/svg">
  <defs
     id="defs2" />
  <sodipodi:namedview
     id="namedview2"
     pagecolor="#ffffff"
     bordercolor="#000000"
     borderopacity="0.25"
     inkscape:showpageshadow="2"
     inkscape:pageopacity="0.0"
     inkscape:pagecheckerboard="0"
     inkscape:deskcolor="#d1d1d1"
     inkscape:document-units="mm"
     inkscape:zoom="9.8557292"
     inkscape:cx="68.589547"
     inkscape:cy="52.355335"
     inkscape:window-width="3440"
     inkscape:window-height="1403"
     inkscape:window-x="0"
     inkscape:window-y="0"
     inkscape:window-maximized="1"
     inkscape:current-layer="svg2" />
  <g
     fill="#000000"
     id="g2"
     transform="matrix(1.077273,0,0,1.0004216,-1.236367,-0.00518454)"
     style="stroke-width:0.963265">
    <g
       id="g3">
      <path
         style="font-size:27.2969px;stroke-width:0.277419"
         d="m -33.160166,0.94033265 h 5.651312 V 2.4614552 H -30.70771 V 23.757169 h 3.198856 v 1.521122 h -5.651312 z"
         transform="matrix(0,-0.81933204,1.2205064,0,0,0)"
         aria-label="["
         id="path1"
         sodipodi:nodetypes="ccccccccc" />
      <path
         style="font-size:13.3022px;stroke-width:0.27742"
         d="m 9.5772892,16.101264 c -1.6468215,0 -2.787781,0.178618 -3.4228781,0.535857 -0.6350972,0.357238 -0.9526458,0.966645 -0.9526458,1.828218 0,0.686458 0.2363152,1.23282 0.7089457,1.639092 0.4800154,0.399267 1.1298823,0.598899 1.9496005,0.598899 1.1298819,0 2.0345263,-0.378253 2.7139335,-1.134757 0.68679,-0.763508 1.030186,-1.775682 1.030186,-3.036521 v -0.430788 z m 4.0653598,-0.798531 v 6.713971 h -2.038218 v -1.78619 c -0.465246,0.714476 -1.044956,1.243328 -1.739132,1.586556 -0.6941769,0.336225 -1.5434344,0.504338 -2.5477739,0.504338 -1.2701944,0 -2.2819189,-0.336225 -3.0351736,-1.008673 -0.7458698,-0.679453 -1.1188048,-1.586557 -1.1188048,-2.721313 0,-1.32388 0.4652456,-2.322045 1.3957368,-2.994493 0.937876,-0.672447 2.3336126,-1.008671 4.1872101,-1.008671 h 2.8579374 v -0.189126 c 0,-0.889592 -0.310163,-1.57605 -0.930492,-2.059372 -0.612942,-0.490326 -1.47697,-0.73549 -2.592082,-0.73549 -0.7089455,0 -1.3994291,0.08055 -2.0714505,0.241662 -0.6720214,0.161107 -1.3181957,0.402768 -1.9385233,0.724983 v -1.786189 c 0.74587,-0.273183 1.4695853,-0.476319 2.171146,-0.609408 0.7015609,-0.140092 1.3846595,-0.210139 2.0492961,-0.210139 1.7945187,0 3.1348697,0.441294 4.0210507,1.323881 0.886183,0.882589 1.329273,2.22048 1.329273,4.013673 z m 13.104419,0.840559 c 0,-1.421946 -0.310164,-2.535687 -0.930492,-3.341223 -0.612942,-0.812542 -1.458508,-1.218813 -2.536697,-1.218813 -1.078188,0 -1.927445,0.406271 -2.547773,1.218813 -0.612942,0.805536 -0.919414,1.919277 -0.919414,3.341223 0,1.421947 0.306472,2.539191 0.919414,3.351733 0.620328,0.805536 1.469585,1.208305 2.547773,1.208305 1.078189,0 1.923755,-0.402769 2.536697,-1.208305 0.620328,-0.812542 0.930492,-1.929786 0.930492,-3.351733 z m -6.934376,-4.108236 c 0.428323,-0.700464 0.967417,-1.218809 1.617284,-1.555034 0.657252,-0.343229 1.440045,-0.514843 2.348381,-0.514843 1.50651,0 2.728702,0.567378 3.666577,1.702134 0.945262,1.134756 1.417893,2.626749 1.417893,4.475979 0,1.849232 -0.472631,3.341225 -1.417893,4.475982 -0.937875,1.134755 -2.160067,1.702134 -3.666577,1.702134 -0.908336,0 -1.691129,-0.168113 -2.348381,-0.504338 -0.649867,-0.343228 -1.188961,-0.865075 -1.617284,-1.565543 v 1.765177 H 17.763396 V 5.6678181 h 2.049296 z"
         aria-label="abc"
         id="path2"
         sodipodi:nodetypes="ssscscscssccccscscscscsscccsssscscscscsccscscsccccccc" />
    </g>
  </g>
</svg>
