<?xml version="1.0" encoding="UTF-8" standalone="no"?>
<svg
   height="16px"
   viewBox="0 0 16 16"
   width="16px"
   version="1.1"
   id="svg2"
   sodipodi:docname="top-down-symbolic.svg"
   inkscape:version="1.4 (e7c3feb100, 2024-10-09)"
   xmlns:inkscape="http://www.inkscape.org/namespaces/inkscape"
   xmlns:sodipodi="http://sodipodi.sourceforge.net/DTD/sodipodi-0.dtd"
   xmlns="http://www.w3.org/2000/svg"
   xmlns:svg="http://www.w3.org/2000/svg">
  <defs
     id="defs2" />
  <sodipodi:namedview
     id="namedview2"
     pagecolor="#ffffff"
     bordercolor="#000000"
     borderopacity="0.25"
     inkscape:showpageshadow="2"
     inkscape:pageopacity="0.0"
     inkscape:pagecheckerboard="0"
     inkscape:deskcolor="#d1d1d1"
     inkscape:zoom="74.5"
     inkscape:cx="7.9932886"
     inkscape:cy="6.9261745"
     inkscape:window-width="3440"
     inkscape:window-height="1403"
     inkscape:window-x="0"
     inkscape:window-y="0"
     inkscape:window-maximized="1"
     inkscape:current-layer="g2" />
  <g
     fill="#222222"
     id="g2">
    <path
       d="m 3,0.988281 c -1.644531,0 -3,1.355469 -3,3 v 8 c 0,1.644531 1.355469,3 3,3 h 10 c 1.644531,0 3,-1.355469 3,-3 v -8 c 0,-1.644531 -1.355469,-3 -3,-3 z m 0,2 h 10 c 0.570312,0 1,0.429688 1,1 v 8 c 0,0.570313 -0.429688,1 -1,1 H 3 c -0.570312,0 -1,-0.429687 -1,-1 v -8 c 0,-0.570312 0.429688,-1 1,-1 z"
       id="path1"
       sodipodi:nodetypes="ssssssssssssssssss" />
    <path
       d="M 0.99999997,9.0000003 V 7.5000002 H 15.186576 v 1.5000001 z"
       id="path2"
       sodipodi:nodetypes="ccccc"
       style="stroke-width:0.999997" />
  </g>
</svg>
