<?xml version="1.0" encoding="UTF-8" standalone="no"?>
<svg
   height="32"
   viewBox="0 0 32 32"
   width="32"
   version="1.1"
   id="svg3"
   xml:space="preserve"
   xmlns="http://www.w3.org/2000/svg"
   xmlns:svg="http://www.w3.org/2000/svg"><defs
     id="defs3" /><g
     fill="#222222"
     id="g3"
     transform="matrix(-0.07549192,0,0,0.07549192,16.548353,18.436351)"
     style="stroke-width:13.2465" /><path
     style="fill:#2e3434;stroke-width:1.08851;fill-opacity:0.34901962"
     d="M 7.5205518,15.963822 C 6.818867,15.804731 5.6526033,15.275838 4.9998411,14.820698 3.9763345,14.107056 2.7878413,12.750678 2.0793019,11.48761 1.1113645,9.7621286 0.66785654,7.3372136 1.1497066,6.4049784 1.6764717,5.3858476 3.4270203,4.7909793 6.4021566,4.6200979 c 1.3765003,-0.079059 2.0942946,0.00597 5.0906074,0.6028297 1.259941,0.2509904 2.702875,0.5033233 3.20652,0.5607397 1.444005,0.1646211 3.180152,-0.00545 5.884126,-0.57628 2.162773,-0.4566071 2.296572,-0.4736525 4.043344,-0.5150979 2.945121,-0.069877 4.765922,0.2927659 5.840072,1.1631545 0.55599,0.4505208 0.661883,0.7877138 0.602523,1.9186096 -0.161145,3.0701155 -2.170401,6.1532015 -4.941647,7.5826735 -0.986761,0.508993 -1.610439,0.671491 -2.793876,0.727935 -1.406537,0.06709 -1.962919,-0.07486 -3.045018,-0.776851 -2.496003,-1.619239 -2.714385,-1.700424 -4.447394,-1.653373 -1.182647,0.03211 -1.285876,0.05003 -1.848366,0.32082 -0.327671,0.157747 -1.052391,0.587659 -1.61049,0.95536 -1.49027,0.981855 -1.857367,1.115144 -3.162045,1.148091 -0.7307781,0.01846 -1.2736732,-0.01824 -1.6999612,-0.114887 z M 24.684138,11.744696 c 2.396338,-0.632515 2.892909,-1.599819 1.483351,-2.9780182 -0.673692,-0.6587043 -1.173469,-0.9032391 -2.625513,-0.988901 -2.08711,-0.1231275 -3.507325,0.234357 -4.185798,1.283276 -0.322071,0.4979204 -0.874535,0.9287608 -0.62306,1.4330762 0.45804,0.918564 1.69785,1.035883 3.253228,1.239742 0.739393,0.09691 2.050098,0.181785 2.697792,0.01082 z m -13.577971,-0.08781 c 0.840806,-0.23838 1.020241,-0.228662 1.518336,-0.698393 0.531747,-0.501466 0.402956,-0.463946 0.402956,-1.1309936 0,-0.6469614 -0.08373,-0.8412183 -0.531982,-1.2438741 C 11.733038,7.8987342 11.039003,7.9935976 9.6830596,7.9170826 7.7404584,7.8074631 6.9711332,7.9403003 6.0973449,8.8328898 5.3992057,9.5460518 5.3117483,9.3349675 5.7089392,10.150429 c 0.2657321,0.54557 0.1472189,0.775444 0.9797885,1.168023 0.7502427,0.353759 0.9250542,0.408992 2.4372245,0.420908 1.0531868,0.0083 1.4483918,0.06831 1.9802148,-0.08248 z"
     id="path2" /><path
     style="fill:#000000;stroke-width:13.2465"
     d="m 168.6055,-23.136514 c 7.23006,-3.289957 12.05036,-7.979795 18.24036,-12.76545 0.29733,0 0.39596,37.4625001 0.25629,83.250003 l -0.25574,83.840161 c -6.34554,0.28056 -11.89164,-0.16388 -18.24091,0 z m -263.746643,6.17612 c -51.273227,-5.70648 -97.150627,-51.95563 -107.927487,-108.802026 -2.31886,-12.23168 -2.10951,-27.66253 0.46879,-34.55366 2.51192,-6.71371 9.47132,-14.66857 17.21605,-19.6786 21.42191,-13.85775 71.30607,-19.64663 111.531327,-12.94282 6.76562,1.12754 20.71562,3.8738 31,6.1028 25.45743,5.51756 35.5711003,6.91993 49.9554503,6.92684 14.3452297,0.007 25.5671297,-1.54021 50.7645297,-6.99867 10.10715,-2.1895 23.91214,-4.89762 30.67776,-6.01805 31.305393,-5.18439 70.351993,-2.95473 95.005943,5.42508 16.67663,5.66834 27.16626,13.54398 32.49655,24.39846 2.48173,5.05374 2.83533,7.0013 3.12268,17.19908 0.93612,33.22193 -16.20759,71.394146 -43.56458,97.000986 -25.43324,23.80617 -55.61694,34.92712 -86.740123,31.95873 -17.3557,-1.6553 -24.07454,-4.3989 -44.66267,-18.23769 -15.76111,-10.5942 -21.35941,-12.81885 -33.85667,-13.45397 -15.6874197,-0.79725 -22.84625,1.70854 -41.40032,14.49127 -18.08946,12.46263 -28.91817,16.45906 -47.59968,17.56707 -4.675,0.27728 -12.0944,0.1041 -16.48755,-0.38483 z m 27.68833,-17.07184 c 8.0458,-1.71608 14.3206,-4.83962 27.61616,-13.74709 21.45006,-14.37062 28.96501,-17.09307 47.1830603,-17.09307 18.1624197,0 25.7649197,2.74383 46.9755997,16.95409 19.32438,12.94651 25.45091,15.02114 44.32362,15.00934 19.106853,-0.012 34.277093,-4.84459 51.775103,-16.49348 15.72944,-10.47152 31.69118,-28.90783 40.69109,-46.99952 10.1895,-20.483006 15.12382,-48.559646 10.36893,-58.999996 -6.47022,-14.20669 -30.25975,-22.33539 -70.63434,-24.13523 -20.88292,-0.93092 -28.01081,0.009 -79.500003,10.487 -23.05502,4.69153 -31.02872,5.469 -49.6632197,4.84239 -17.5887003,-0.59143 -23.7236203,-1.51105 -56.8367803,-8.51976 -28.34071,-5.99858 -33.19828,-6.59207 -53.999997,-6.59773 -42.46865,-0.0115 -70.50518,8.63183 -77.60015,23.92333 -2.34666,5.05765 -2.44147,13.99189 -0.28201,26.57379 7.53404,43.896396 41.84942,83.154306 81.68542,93.450776 10.412147,2.69125 28.565467,3.33559 37.897517,1.34516 z m -34.200777,-49.36575 c -28.64172,-5.76398 -43.70767,-22.704696 -35.6263,-40.059576 4.26401,-9.15705 14.81713,-16.13414 31.1263,-20.57884 11.614797,-3.16536 34.363857,-3.21742 46.733697,-0.10695 20.87398,5.2489 33.7663,16.54637 33.7663,29.58924 0,14.693116 -14.84669,26.636526 -38.83797,31.243166 -8.99062,1.72631 -28.37695,1.68091 -37.162027,-0.087 z m 39.499997,-16.962676 c 11.81305,-3.20333 20.5,-9.02839 20.5,-13.74634 0,-5.05746 -9.70859,-11.52546 -21.72868,-14.47596 -9.50586,-2.33335 -29.49206,-2.27756 -38.771317,0.10822 -8.46387,2.17614 -15.81789,5.97343 -19.08272,9.85346 -3.12163,3.70984 -3.04637,4.93323 0.5558,9.03588 3.68707,4.19934 13.04888,8.49098 22.417047,10.276396 8.97523,1.71054 27.96289,1.15754 36.10987,-1.051656 z m 145,17.882356 c -1.1,-0.26001 -5.15,-1.19223 -9,-2.07161 -14.40224,-3.28963 -27.55357,-11.96112 -31.62455,-20.852046 -2.34001,-5.11052 -2.34193,-12.88259 -0.004,-18 3.96823,-8.68754 15.54287,-16.24187 31.62898,-20.64301 6.62829,-1.81349 10.65769,-2.18879 23.5,-2.18879 17.412823,0 26.137403,1.72029 37.896083,7.47222 24.69615,12.08049 24.67334,36.47498 0.6812,49.08249 -11.39472,5.98776 -11.23189,6.051504 -32.97552,7.640619 -10.657269,0.778878 -19.001763,-0.179859 -20.101763,-0.439873 z m 29.942703,-16.88134 c 9.83864,-1.882446 18.83531,-5.955986 22.58422,-10.225756 3.62856,-4.1327 3.68369,-5.3186 0.42718,-9.18874 -6.04806,-7.1877 -20.55046,-11.52166 -38.454103,-11.49179 -18.08952,0.0302 -31.09775,3.73444 -38.2577,10.8944 -4.41277,4.41277 -3.62679,8.1013 2.62802,12.33299 11.8858,8.041346 32.76814,11.181076 51.072383,7.678896 z"
     id="path1"
     transform="matrix(-0.07549192,0,0,0.07549192,16.548353,18.436351)" /><path
     style="opacity:0.301;fill:#2e3434;fill-opacity:0.34902;stroke-width:1.08851"
     d="M 8.837081,17.183675 C 7.8871014,17.151021 6.9307641,16.935831 6.0273445,16.551442 4.8373272,16.045111 3.6773275,15.204722 2.7266269,14.160159 0.99696055,12.259723 -0.04543823,9.6933714 0.00752642,7.4658232 0.02557126,6.706907 0.05785196,6.517039 0.22927789,6.1615301 0.40002767,5.8074234 0.6323632,5.502054 0.93307112,5.2365018 1.9097681,4.3739906 3.6955613,3.8414791 6.0923897,3.6980279 c 0.3103679,-0.018576 1.1716575,-0.033544 1.4786068,-0.025697 0.9000941,0.023011 1.6487151,0.094179 2.4568865,0.2335648 0.440777,0.076021 1.397328,0.2649813 2.057172,0.4063811 1.885285,0.404003 2.659415,0.5199106 3.630271,0.5435468 0.740642,0.018032 1.446172,-0.029449 2.158134,-0.1452357 0.09421,-0.015322 0.173168,-0.027891 0.175452,-0.027931 0.0023,-3.99e-5 0.0089,0.2745656 0.0148,0.6102344 l 0.01065,0.6103069 -0.145005,0.019254 C 17.390811,5.9939638 16.831982,6.0295274 16.02674,6.0435347 14.845072,6.0640894 14.330188,6.0037695 12.459859,5.6256612 9.9672353,5.1217495 9.1304386,4.9738147 8.3470118,4.8985636 7.5713995,4.8240631 6.2421512,4.8661346 5.1257837,5.0005173 2.9993129,5.2564914 1.7317226,5.82546 1.335078,6.7020073 1.0514491,7.3288006 1.2155936,8.8091694 1.7274489,10.240681 c 0.1380054,0.385962 0.2861822,0.725566 0.4681371,1.072918 0.6086276,1.161868 1.5884433,2.33427 2.6052349,3.1173 0.4777336,0.367903 1.1162814,0.7498 1.6408234,0.98133 0.7733352,0.341346 1.5043178,0.50612 2.3921913,0.539235 0.2947356,0.01099 1.0151228,-0.01078 1.2149744,-0.03672 0.412351,-0.05352 0.732642,-0.14423 1.085966,-0.30756 0.328771,-0.15198 0.644011,-0.33902 1.276998,-0.757675 0.433867,-0.286958 0.643372,-0.42108 0.862411,-0.552104 0.988129,-0.59108 1.578491,-0.755288 2.704611,-0.75228 0.364026,9.72e-4 0.54484,0.0087 0.78813,0.03378 0.464623,0.04785 0.830721,0.149593 1.266527,0.351986 l 0.182519,0.08476 0.01227,0.702982 0.01227,0.702982 -0.02837,-0.01835 c -0.105117,-0.06797 -0.422546,-0.244072 -0.557178,-0.309099 -0.394405,-0.190497 -0.688224,-0.278164 -1.088473,-0.324765 -0.164105,-0.01911 -0.716272,-0.01812 -0.963679,0.0017 -0.595528,0.04775 -0.923544,0.140244 -1.410771,0.3978 -0.293661,0.155234 -0.479512,0.271143 -1.180478,0.736224 -1.353925,0.898309 -1.872569,1.108263 -3.0484766,1.234064 -0.3870384,0.04141 -0.7723641,0.05662 -1.1260084,0.04447 z"
     id="path26" /><path
     style="opacity:0.301;fill:#2e3434;fill-opacity:0.34902;stroke-width:1.08851"
     d="m 8.9796694,17.186257 c -0.4493897,-0.01039 -0.8274189,-0.04954 -1.328322,-0.137561 -0.014067,-0.0025 -0.073956,-0.01519 -0.1330854,-0.02826 -0.05913,-0.01307 -0.1190196,-0.02587 -0.1330888,-0.02845 -0.014069,-0.0026 -0.066037,-0.01532 -0.115484,-0.02831 -0.049447,-0.01299 -0.093242,-0.02404 -0.097323,-0.02455 C 7.1456162,16.935826 6.6973818,16.804783 6.672406,16.79301 6.660852,16.78761 6.644689,16.7819 6.636489,16.78043 6.628289,16.77893 6.60857,16.77273 6.59267,16.76649 6.57677,16.76029 6.557448,16.75534 6.549732,16.75547 c -0.00772,1.35e-4 -0.01672,-0.0039 -0.02001,-0.0091 -0.00329,-0.0051 -0.020746,-0.01228 -0.038793,-0.01592 -0.018046,-0.0036 -0.039912,-0.01032 -0.04859,-0.01486 -0.00868,-0.0045 -0.080467,-0.03308 -0.1595324,-0.06342 -0.079065,-0.03034 -0.1774658,-0.0701 -0.2186685,-0.08835 -0.041203,-0.01825 -0.077661,-0.03313 -0.081019,-0.03307 -0.023659,4.13e-4 -0.4599008,-0.21228 -0.6642138,-0.323842 -0.060848,-0.03322 -0.1152508,-0.06033 -0.1208942,-0.06023 -0.00564,9.8e-5 -0.010339,-0.0043 -0.010435,-0.0098 -9.6e-5,-0.0055 -0.011696,-0.01268 -0.025777,-0.01596 -0.014081,-0.0033 -0.025668,-0.0097 -0.025749,-0.01436 -8.07e-5,-0.0046 -0.010527,-0.01144 -0.023213,-0.01516 -0.012687,-0.0037 -0.025414,-0.0098 -0.028283,-0.01345 -0.00621,-0.008 -0.1115524,-0.07011 -0.1186443,-0.06999 -0.00271,4.8e-5 -0.027555,-0.01558 -0.055218,-0.03473 -0.027663,-0.01915 -0.053383,-0.03477 -0.057156,-0.0347 -0.00377,6.6e-5 -0.012484,-0.0045 -0.019357,-0.0101 -0.031482,-0.02574 -0.2255696,-0.148816 -0.234441,-0.148661 -0.00548,9.6e-5 -0.010019,-0.0034 -0.010096,-0.0078 -7.67e-5,-0.0044 -0.015205,-0.01653 -0.033618,-0.02695 -0.018413,-0.01042 -0.042518,-0.02706 -0.053565,-0.03696 -0.011048,-0.0099 -0.023096,-0.01796 -0.026774,-0.01789 -0.00368,6.4e-5 -0.020219,-0.01112 -0.036758,-0.02485 -0.016539,-0.01373 -0.03281,-0.02492 -0.036158,-0.02487 -0.00335,5.1e-5 -0.015678,-0.0078 -0.0274,-0.01738 -0.011722,-0.0096 -0.031466,-0.02418 -0.043875,-0.03238 -0.012409,-0.0082 -0.031002,-0.02164 -0.041319,-0.02988 -0.010317,-0.0082 -0.029044,-0.02168 -0.041617,-0.02987 -0.012573,-0.0082 -0.028115,-0.01952 -0.034539,-0.02518 -0.012611,-0.0111 -0.122621,-0.09563 -0.1563887,-0.120174 -0.011363,-0.0083 -0.034628,-0.02638 -0.0517,-0.04027 -0.017071,-0.01389 -0.047161,-0.03727 -0.066866,-0.05194 -0.019705,-0.01468 -0.043663,-0.03344 -0.053241,-0.04169 -0.030757,-0.02649 -0.064545,-0.05442 -0.1333365,-0.110229 -0.036987,-0.03001 -0.069587,-0.05709 -0.072446,-0.06018 -0.00286,-0.0031 -0.035491,-0.03195 -0.072515,-0.06412 C 3.3511566,14.794373 3.156025,14.61026 2.9593892,14.405616 2.8965412,14.340206 2.8311041,14.272554 2.8139734,14.255271 c -0.017131,-0.01728 -0.052225,-0.05575 -0.077988,-0.08548 -0.025762,-0.02973 -0.056185,-0.06352 -0.067607,-0.07509 -0.011421,-0.01157 -0.033262,-0.03661 -0.048536,-0.05564 -0.015273,-0.01903 -0.041029,-0.0484 -0.057236,-0.06526 -0.016206,-0.01686 -0.042682,-0.04747 -0.058834,-0.06801 -0.016153,-0.02055 -0.04,-0.04844 -0.052993,-0.06198 -0.012994,-0.01354 -0.032601,-0.03653 -0.043571,-0.0511 -0.02489,-0.03305 -0.142666,-0.178506 -0.1500243,-0.185287 -0.00299,-0.0028 -0.018271,-0.02314 -0.033964,-0.0453 -0.015694,-0.02216 -0.039155,-0.05231 -0.052138,-0.06699 -0.012982,-0.01468 -0.029424,-0.03505 -0.036538,-0.04526 C 2.1032232,13.404862 1.9809893,13.239447 1.9757323,13.234922 1.9683883,13.2286 1.7250295,12.876267 1.7033787,12.84061 1.6945264,12.826031 1.6448164,12.747663 1.592912,12.666459 1.4841002,12.496224 1.4924069,12.509671 1.4270466,12.39795 c -0.027613,-0.0472 -0.05469,-0.09262 -0.060169,-0.100944 -0.040395,-0.06133 -0.2782088,-0.508531 -0.36811589,-0.692233 -0.0244999,-0.05006 -0.0560845,-0.114223 -0.070188,-0.142585 -0.0141035,-0.02836 -0.0256945,-0.05454 -0.0257579,-0.05817 -6.338e-5,-0.0036 -0.0139449,-0.03506 -0.0308479,-0.06984 -0.016903,-0.03478 -0.0697232,-0.156646 -0.11737823,-0.270812 C 0.70693468,10.949199 0.66401528,10.84668 0.65921348,10.835544 0.63299378,10.774744 0.59840778,10.680359 0.52551709,10.4707 0.40145564,10.113857 0.39334078,10.087705 0.30517062,9.7605906 0.24264796,9.5286293 0.19585253,9.3335136 0.17541505,9.219569 0.17267305,9.204283 0.16809805,9.182169 0.16524805,9.170426 0.16239805,9.158683 0.15723005,9.131235 0.15376455,9.10943 0.15029855,9.087625 0.14292355,9.04921 0.13737515,9.024063 0.13182715,8.998916 0.12399925,8.956183 0.11998075,8.9291 0.11596275,8.902017 0.11116975,8.872267 0.10933095,8.86299 0.10749195,8.85371 0.10218295,8.818811 0.09753323,8.785431 0.09288335,8.7520507 0.08763983,8.7177193 0.08588095,8.7091389 0.07634673,8.6626276 0.04733125,8.400523 0.03118605,8.2150655 0.01408464,8.0186239 0.00518596,7.5159101 0.01440081,7.2668151 0.03609075,6.6804946 0.06927203,6.5076374 0.22143671,6.1882655 0.29728006,6.0290812 0.34816794,5.9295844 0.3588553,5.9195826 c 0.009242,-0.00865 0.11876433,-0.1767137 0.11867027,-0.1821025 -4.813e-5,-0.00276 0.005541,-0.011259 0.0124195,-0.018892 0.006879,-0.00763 0.0282238,-0.033774 0.0474331,-0.058091 0.0635475,-0.080444 0.19221448,-0.2313617 0.22423616,-0.2630144 0.0593557,-0.058671 0.14209678,-0.1350766 0.1890962,-0.1746159 0.0258525,-0.021749 0.0527562,-0.045233 0.0597861,-0.052186 0.029433,-0.029113 0.3068815,-0.2332387 0.3577871,-0.263233 0.015242,-0.00898 0.041324,-0.025349 0.057961,-0.036374 C 1.5402065,4.795555 1.864252,4.624819 2.0578976,4.5382635 c 0.075144,-0.033588 0.1844916,-0.079767 0.2429942,-0.1026194 0.058503,-0.022853 0.1154721,-0.045885 0.126599,-0.051183 0.03273,-0.015585 0.4854379,-0.1687684 0.5272542,-0.1784082 0.00559,-0.00129 0.071807,-0.020241 0.147156,-0.042117 0.075349,-0.021877 0.1484276,-0.042313 0.1623976,-0.045413 0.01397,-0.0031 0.073376,-0.018051 0.1320122,-0.033222 0.058637,-0.015171 0.1203385,-0.030035 0.1371152,-0.033031 0.016777,-0.003 0.048773,-0.010557 0.071102,-0.016803 0.02233,-0.00625 0.052036,-0.013529 0.066014,-0.016185 0.013978,-0.00266 0.083756,-0.017146 0.1550624,-0.032199 0.202526,-0.042753 0.6595551,-0.1227505 0.8362612,-0.1463776 0.3025647,-0.040456 0.4659311,-0.060155 0.65139,-0.078548 0.0728,-0.00722 0.1552715,-0.015425 0.1832708,-0.018234 0.3525156,-0.035359 0.6901093,-0.05167 1.2993266,-0.062777 0.6497237,-0.011845 0.8215796,-0.010551 1.2186918,0.00918 0.6670048,0.033133 1.2200117,0.08918 1.803679,0.182799 0.075943,0.012181 0.1525446,0.024282 0.1702255,0.026892 0.047423,0.007 0.4537837,0.082347 0.6482937,0.1202092 0.09288,0.018078 0.180372,0.034848 0.194439,0.037267 0.01407,0.00242 0.04631,0.00875 0.07164,0.014075 0.02534,0.00532 0.05757,0.011652 0.07164,0.014064 0.01407,0.00241 0.08776,0.017185 0.163764,0.032828 0.076,0.015643 0.149698,0.030515 0.163767,0.033049 0.07308,0.013161 0.141101,0.027051 0.394081,0.080474 0.152021,0.032103 0.294823,0.061918 0.317338,0.066256 0.02251,0.00434 0.07088,0.014246 0.107478,0.022017 1.79771,0.3817581 2.432341,0.4813267 3.385269,0.5311216 0.249842,0.013055 1.198054,-0.00346 1.432579,-0.024955 0.355384,-0.032569 0.790262,-0.087452 1.04314,-0.1316491 0.03076,-0.00538 0.0594,-0.00775 0.06365,-0.00528 0.0042,0.00247 0.01248,0.2765108 0.01828,0.6089744 l 0.01055,0.6044793 -0.211184,0.025983 c -0.224111,0.027573 -0.245564,0.02988 -0.460658,0.049523 -0.633999,0.057899 -1.939407,0.083486 -2.436821,0.047764 -0.224239,-0.016104 -0.507017,-0.046119 -0.694846,-0.073753 -0.06468,-0.00952 -0.133691,-0.019132 -0.153364,-0.02137 -0.01967,-0.00224 -0.137045,-0.021428 -0.260828,-0.042645 -0.123783,-0.021217 -0.234261,-0.0398 -0.245507,-0.041296 -0.01124,-0.0015 -0.03197,-0.00532 -0.04604,-0.00849 -0.01408,-0.00318 -0.04171,-0.00819 -0.06139,-0.011142 -0.05554,-0.00833 -0.0703,-0.011042 -0.168832,-0.03104 -0.05067,-0.010283 -0.105928,-0.020873 -0.122803,-0.023533 -0.01688,-0.00266 -0.06108,-0.011018 -0.09822,-0.018573 -0.03715,-0.00756 -0.08089,-0.015737 -0.09721,-0.018182 -0.01632,-0.00244 -0.0366,-0.00685 -0.04506,-0.00979 -0.0085,-0.00294 -0.0292,-0.00743 -0.04607,-0.00999 -0.01687,-0.00256 -0.136615,-0.025937 -0.266091,-0.051955 -0.129476,-0.026018 -0.269954,-0.054131 -0.312172,-0.062473 -0.04222,-0.00834 -0.09288,-0.018459 -0.112586,-0.022484 -0.0197,-0.00402 -0.05885,-0.011872 -0.087,-0.017439 -0.05968,-0.011805 -0.216799,-0.043374 -0.312176,-0.062724 -0.03659,-0.00742 -0.107983,-0.021735 -0.158646,-0.031803 -0.1327,-0.026374 -0.312524,-0.062249 -0.424763,-0.084744 -0.05348,-0.010718 -0.205458,-0.040419 -0.337732,-0.066003 -0.132273,-0.025583 -0.29346,-0.056845 -0.358191,-0.069471 C 10.282455,5.1939319 9.7192545,5.0910931 9.5329676,5.0604848 9.3780963,5.0350384 8.9573339,4.9701559 8.8886717,4.961133 8.7937433,4.9486585 8.5568438,4.9200544 8.474724,4.9111514 8.4241412,4.9056676 8.3689592,4.8996315 8.3520971,4.8977378 8.2750276,4.8890827 7.9363524,4.8684522 7.770113,4.862286 7.4098312,4.8489224 6.5774577,4.8731471 6.0370968,4.9127223 4.4317411,5.0302961 3.2234988,5.2924119 2.4248915,5.6963534 1.8649165,5.9795929 1.5169368,6.3001155 1.3364985,6.6988675 0.9954828,7.4524809 1.3030257,9.3890902 2.0091177,10.934376 c 0.5655446,1.237698 1.5750213,2.520249 2.6882951,3.415508 0.5418388,0.435729 1.2805728,0.872505 1.9293395,1.140718 0.5427072,0.224367 1.15737,0.375963 1.7494856,0.431483 0.2950461,0.02766 0.3902535,0.03104 0.8233759,0.02917 0.4787237,-0.0021 0.7434832,-0.01712 0.9865462,-0.05609 0.664096,-0.106483 1.114896,-0.314373 2.129828,-0.982187 0.197903,-0.130217 0.242204,-0.159757 0.288987,-0.192689 0.02307,-0.01624 0.04524,-0.02959 0.04926,-0.02966 0.004,-7e-5 0.02938,-0.01658 0.05636,-0.03668 0.02698,-0.0201 0.05156,-0.0366 0.05462,-0.03665 0.0031,-5.4e-5 0.03288,-0.01893 0.06626,-0.04195 0.03338,-0.02302 0.06337,-0.0419 0.06665,-0.04196 0.0033,-5.8e-5 0.0208,-0.01184 0.03894,-0.02618 0.01814,-0.01434 0.03523,-0.02611 0.03798,-0.02616 0.0028,-4.8e-5 0.04407,-0.02487 0.09182,-0.05515 0.04775,-0.03028 0.09918,-0.06172 0.114301,-0.06987 0.01512,-0.0081 0.02973,-0.01767 0.03248,-0.02117 0.0027,-0.0035 0.01636,-0.0123 0.03026,-0.01956 0.0139,-0.0073 0.04343,-0.0245 0.06563,-0.03833 0.0222,-0.01383 0.05855,-0.03504 0.08077,-0.04713 0.02223,-0.0121 0.06767,-0.03814 0.100983,-0.05787 0.06568,-0.0389 0.07907,-0.04594 0.330249,-0.173677 0.09273,-0.04715 0.1711,-0.08578 0.174163,-0.08583 0.0031,-5.4e-5 0.02959,-0.01146 0.05895,-0.02535 0.02936,-0.01389 0.06934,-0.03134 0.08885,-0.03878 0.0195,-0.0074 0.04913,-0.01955 0.06583,-0.02692 0.031,-0.01367 0.224866,-0.08228 0.243283,-0.08609 0.0056,-0.0012 0.05354,-0.0147 0.106568,-0.03009 0.08423,-0.02445 0.290805,-0.07256 0.380929,-0.08873 0.278877,-0.05002 0.733969,-0.07631 1.181937,-0.06829 0.278289,0.005 0.368528,0.009 0.592027,0.02648 0.112145,0.0088 0.331676,0.04034 0.44119,0.06346 0.03462,0.0073 0.07377,0.01519 0.087,0.01751 0.01323,0.0023 0.04942,0.01084 0.08042,0.01892 0.03099,0.0081 0.06788,0.01754 0.08196,0.02103 0.135247,0.03348 0.375043,0.123934 0.623719,0.235266 l 0.187605,0.08399 0.01226,0.70231 0.01226,0.70231 -0.08504,-0.05108 c -0.452073,-0.271564 -0.828888,-0.441479 -1.160913,-0.523484 -0.114907,-0.02838 -0.265246,-0.05565 -0.381892,-0.06929 -0.04497,-0.0053 -0.100161,-0.01186 -0.122649,-0.01467 -0.0942,-0.0118 -0.711882,-0.0047 -0.893113,0.01028 -0.574762,0.04746 -0.883863,0.131606 -1.344186,0.365915 -0.284567,0.144846 -0.576496,0.324876 -1.190711,0.734296 -0.02773,0.01848 -0.07538,0.04961 -0.105887,0.06917 -0.03051,0.01956 -0.05694,0.03911 -0.05874,0.04345 -0.0018,0.0043 -0.0074,0.008 -0.01251,0.0081 -0.0051,8.8e-5 -0.04218,0.02235 -0.08243,0.04947 -0.04025,0.02712 -0.0875,0.05754 -0.104988,0.0676 -0.01749,0.01006 -0.05834,0.03615 -0.09078,0.05799 -0.07299,0.04913 -0.09514,0.06323 -0.114501,0.07289 -0.0083,0.0042 -0.03332,0.01958 -0.0555,0.03426 -0.02218,0.01468 -0.04942,0.03183 -0.06053,0.03812 -0.01111,0.0063 -0.05134,0.03006 -0.0894,0.05282 -0.118957,0.07113 -0.140562,0.08377 -0.223571,0.1308 -0.08809,0.04991 -0.35555,0.189767 -0.36316,0.189899 -0.0026,4.6e-5 -0.03795,0.01643 -0.07857,0.0364 -0.08881,0.04367 -0.221884,0.101438 -0.234168,0.101652 -0.0049,8.5e-5 -0.0232,0.0068 -0.04073,0.01483 -0.0443,0.02039 -0.236725,0.08692 -0.285402,0.09867 -0.0056,0.0013 -0.05584,0.01484 -0.11167,0.02997 -0.306363,0.08306 -0.73863,0.151361 -1.2053035,0.190449 -0.1744868,0.01461 -0.6289402,0.03145 -0.7644601,0.02831 z"
     id="path27" /><path
     style="opacity:0.301;fill:#2e3434;fill-opacity:0.34902;stroke-width:1.08851"
     d="m 8.7194053,17.175966 c -0.061763,-0.0032 -0.1605614,-0.01008 -0.2195524,-0.01521 -0.058991,-0.0051 -0.1279379,-0.01092 -0.1532155,-0.01287 -0.1421721,-0.01099 -0.630317,-0.08386 -0.7592834,-0.113354 -0.021121,-0.0048 -0.038367,-0.0068 -0.038325,-0.0044 4.21e-5,0.0024 -0.00868,-1.13e-4 -0.019388,-0.0056 -0.010705,-0.0055 -0.034913,-0.01189 -0.053795,-0.01422 -0.043038,-0.0053 -0.062569,-0.0097 -0.1260654,-0.02807 -0.027928,-0.0081 -0.052828,-0.0126 -0.055333,-0.01001 -0.00251,0.0026 -0.010312,7.8e-5 -0.017348,-0.0055 -0.00704,-0.0056 -0.016702,-0.0093 -0.021479,-0.0081 -0.00478,0.0012 -0.015616,-4.62e-4 -0.024086,-0.0036 -0.025145,-0.0094 -0.2973582,-0.08395 -0.3159317,-0.08652 -0.0094,-0.0013 -0.021735,-0.005 -0.027401,-0.0082 -0.010855,-0.0061 -0.2020301,-0.06645 -0.2233969,-0.07051 -0.00685,-0.0013 -0.025373,-0.0074 -0.041154,-0.01355 -0.015781,-0.0062 -0.040856,-0.01401 -0.055722,-0.01747 -0.014866,-0.0035 -0.038912,-0.01223 -0.053437,-0.01949 -0.014525,-0.0073 -0.03144,-0.01314 -0.037589,-0.01307 -0.00615,1.07e-4 -0.025976,-0.0069 -0.044061,-0.01556 -0.018084,-0.0086 -0.038438,-0.01678 -0.045231,-0.01811 -0.00679,-0.0013 -0.030843,-0.01011 -0.053446,-0.01951 -0.1138954,-0.04736 -0.2579857,-0.10536 -0.2670607,-0.107503 -0.010675,-0.0025 -0.069745,-0.02754 -0.1746809,-0.07398 -0.03392,-0.01501 -0.1044571,-0.04616 -0.1567491,-0.06923 -0.052292,-0.02307 -0.095148,-0.04604 -0.095235,-0.05105 -8.74e-5,-0.005 -0.0047,-0.0062 -0.010245,-0.0026 -0.00555,0.0036 -0.010176,0.0013 -0.010285,-0.0049 -1.095e-4,-0.0063 -0.00474,-0.0085 -0.010285,-0.0049 -0.00555,0.0036 -0.010176,0.0013 -0.010285,-0.0049 -1.094e-4,-0.0063 -0.00435,-0.0087 -0.00942,-0.0055 -0.00507,0.0033 -0.010834,0.0019 -0.012802,-0.003 -0.00428,-0.01067 -0.1340037,-0.07533 -0.1449234,-0.07223 -0.00419,0.0012 -0.00768,-0.0017 -0.00776,-0.0065 -8.3e-5,-0.0048 -0.019801,-0.01691 -0.043819,-0.027 -0.024017,-0.01009 -0.046015,-0.02134 -0.048883,-0.02499 -0.00287,-0.0037 -0.023734,-0.0158 -0.046368,-0.02699 -0.022634,-0.01119 -0.052727,-0.02607 -0.066873,-0.03306 -0.014146,-0.007 -0.031884,-0.0184 -0.039419,-0.02534 -0.00753,-0.0069 -0.020253,-0.01252 -0.028264,-0.01238 -0.00801,1.4e-4 -0.014641,-0.004 -0.014732,-0.0093 -9.13e-5,-0.0052 -0.010546,-0.01255 -0.023233,-0.01627 -0.012687,-0.0037 -0.025411,-0.0096 -0.028276,-0.01304 -0.011495,-0.01386 -0.09286,-0.06042 -0.092878,-0.05315 -6.8e-6,0.0043 -0.00347,0.0032 -0.00769,-0.0024 -0.010545,-0.01397 -0.09266,-0.06458 -0.1044427,-0.06438 -0.00526,9.2e-5 -0.011162,-0.0036 -0.013113,-0.0083 -0.0047,-0.01121 -0.2528888,-0.170643 -0.2653084,-0.170426 -0.00531,9.2e-5 -0.011239,-0.0033 -0.013184,-0.0077 -0.00541,-0.01196 -0.1515068,-0.111867 -0.1632832,-0.111662 -0.00569,10e-5 -0.010444,-0.0033 -0.010555,-0.0075 -1.142e-4,-0.0042 -0.017578,-0.01882 -0.038814,-0.03247 -0.047109,-0.03029 -0.050232,-0.03257 -0.095491,-0.06967 -0.019919,-0.01633 -0.039331,-0.02971 -0.043138,-0.02974 -0.00381,-3.6e-5 -0.013089,-0.0059 -0.020626,-0.01301 -0.00754,-0.0071 -0.076507,-0.06116 -0.1532652,-0.120058 -0.076758,-0.0589 -0.1488786,-0.115001 -0.1602667,-0.124674 -0.011388,-0.0097 -0.046253,-0.0376 -0.077478,-0.06205 -0.031225,-0.02446 -0.061492,-0.04931 -0.06726,-0.05523 -0.00577,-0.0059 -0.044886,-0.03966 -0.086929,-0.07498 -0.042042,-0.03532 -0.09104,-0.07773 -0.1088845,-0.09424 -0.017844,-0.01652 -0.08069,-0.07279 -0.1396575,-0.125055 -0.1389893,-0.123185 -0.4804333,-0.45953 -0.614813,-0.605632 -0.025042,-0.02723 -0.058336,-0.06253 -0.073988,-0.07844 -0.015652,-0.01592 -0.034414,-0.03713 -0.041694,-0.04715 -0.013406,-0.01845 -0.099763,-0.116037 -0.1378846,-0.155821 -0.011427,-0.01193 -0.034692,-0.03937 -0.051699,-0.06098 -0.017007,-0.02161 -0.038228,-0.04635 -0.047158,-0.05497 -0.00893,-0.0086 -0.032169,-0.03707 -0.051642,-0.06321 -0.019473,-0.02614 -0.038479,-0.04747 -0.042236,-0.04741 -0.00376,6.6e-5 -0.011913,-0.01012 -0.018124,-0.02263 -0.00621,-0.01251 -0.02348,-0.03631 -0.038376,-0.05288 -0.014896,-0.01657 -0.071815,-0.08901 -0.1264868,-0.160982 -0.054672,-0.07197 -0.1086128,-0.141413 -0.1198687,-0.154315 -0.011256,-0.0129 -0.020492,-0.02495 -0.020523,-0.02677 -7.6e-5,-0.0044 -0.1533173,-0.2165 -0.1729177,-0.239387 -0.00834,-0.0097 -0.015238,-0.02224 -0.015335,-0.02778 -9.68e-5,-0.0055 -0.00476,-0.01 -0.010372,-0.0099 -0.00561,9.8e-5 -0.010316,-0.0067 -0.010463,-0.01512 -1.468e-4,-0.0084 -0.00486,-0.01521 -0.010463,-0.01512 -0.00561,9.8e-5 -0.010274,-0.0043 -0.010369,-0.0097 -1.64e-4,-0.0094 -0.091523,-0.151191 -0.1041783,-0.16169 -0.00331,-0.0027 -0.01535,-0.02204 -0.026752,-0.04288 -0.011403,-0.02084 -0.024277,-0.03782 -0.02861,-0.03775 -0.00433,7.6e-5 -0.00797,-0.0052 -0.00809,-0.01175 -1.885e-4,-0.0108 -0.090639,-0.158046 -0.1043515,-0.169875 -0.00319,-0.0027 -0.02002,-0.03112 -0.037406,-0.06306 -0.017386,-0.03193 -0.034131,-0.05803 -0.037211,-0.058 -0.00308,3.3e-5 -0.011687,-0.0159 -0.019127,-0.0354 -0.00744,-0.0195 -0.017819,-0.03539 -0.023064,-0.03529 -0.00524,9.2e-5 -0.00963,-0.0051 -0.00974,-0.01156 -1.126e-4,-0.0064 -0.019702,-0.04397 -0.043532,-0.08338 C 1.3419981,12.253442 1.2611904,12.105224 1.186255,11.963486 1.11132,11.821747 1.0453351,11.700124 1.0396224,11.693212 c -0.00571,-0.0069 -0.00768,-0.01262 -0.00437,-0.01267 0.00331,-5.8e-5 -0.013193,-0.0355 -0.0366707,-0.07877 -0.0234779,-0.04327 -0.0427329,-0.0813 -0.042789,-0.08451 -5.613e-5,-0.0032 -0.017667,-0.04176 -0.0391354,-0.08565 -0.0214683,-0.04389 -0.0400169,-0.08437 -0.0412191,-0.08996 -0.001202,-0.0056 -0.0153356,-0.03747 -0.0314076,-0.07085 -0.016072,-0.03338 -0.0305389,-0.06525 -0.0321487,-0.07083 -0.005532,-0.01918 -0.11176055,-0.271272 -0.11900993,-0.282423 -0.003989,-0.0061 -0.008128,-0.0163 -0.009197,-0.02258 -0.001069,-0.0063 -0.009182,-0.02679 -0.0180295,-0.04558 -0.008847,-0.01879 -0.0335253,-0.08205 -0.0548401,-0.140578 -0.0213149,-0.05853 -0.041728,-0.11325 -0.0453625,-0.121601 -0.003634,-0.0084 -0.007962,-0.02126 -0.009617,-0.02868 -0.001655,-0.0074 -0.006541,-0.02111 -0.0108586,-0.03041 -0.004317,-0.0093 -0.008879,-0.02034 -0.0101381,-0.02453 -0.001259,-0.0042 -0.003476,-0.0099 -0.004927,-0.01266 -0.001451,-0.0028 -0.003865,-0.0096 -0.005365,-0.0152 -0.0015,-0.0056 -0.003914,-0.01243 -0.005365,-0.01521 -0.001451,-0.0028 -0.003865,-0.0096 -0.005365,-0.0152 -0.0015,-0.0056 -0.003672,-0.01128 -0.004826,-0.01267 -0.001155,-0.0014 -0.003637,-0.0094 -0.005516,-0.01775 -0.001879,-0.0084 -0.0309101,-0.09967 -0.0645128,-0.202862 C 0.30524937,9.8015386 0.14428584,9.1282967 0.09775875,8.7850694 0.0947242,8.7626837 0.0867517,8.7050758 0.08004209,8.6570519 0.07333249,8.609028 0.06523637,8.5449132 0.06205073,8.5145745 0.05886509,8.4842358 0.04996311,8.3998567 0.04226856,8.3270653 0.02351491,8.1496537 0.00388956,7.6256341 0.0098212,7.4606834 0.02655741,6.9952726 0.03276054,6.8891376 0.05127048,6.7514905 0.07862254,6.5480898 0.11819475,6.4147229 0.21087653,6.2135834 0.26990515,6.0854785 0.34892024,5.9287259 0.35907693,5.9195787 0.3713764,5.9085018 0.45172877,5.780042 0.44879992,5.776138 c -0.001704,-0.00227 0.004125,-0.00834 0.0129521,-0.013482 0.008827,-0.00514 0.0159692,-0.013962 0.0158709,-0.019596 -9.833e-5,-0.00563 0.013309,-0.025146 0.0297941,-0.043361 0.0164851,-0.018215 0.0299459,-0.035879 0.029913,-0.039254 -3.34e-5,-0.00337 0.0123191,-0.020044 0.0274489,-0.037043 0.0151299,-0.016999 0.0499878,-0.057816 0.0774621,-0.090704 0.0838381,-0.1003585 0.14656543,-0.165514 0.22539964,-0.2341252 0.0414429,-0.036069 0.0847418,-0.075343 0.0962197,-0.087276 0.011478,-0.011933 0.0359257,-0.033434 0.054328,-0.047779 0.018402,-0.014345 0.039187,-0.03192 0.046188,-0.039054 0.007,-0.00713 0.015838,-0.013026 0.019637,-0.013092 0.00874,-1.526e-4 0.089144,-0.065062 0.093523,-0.075502 0.0018,-0.00428 0.00762,-0.00786 0.012938,-0.00795 0.00532,-9.29e-5 0.044654,-0.02553 0.087408,-0.056528 0.042754,-0.030997 0.1345149,-0.090196 0.2039138,-0.1315531 0.1227892,-0.073174 0.393893,-0.2203372 0.4041463,-0.2193831 0.00281,2.614e-4 0.024173,-0.00967 0.047475,-0.022079 0.023302,-0.012405 0.1120953,-0.052869 0.1973185,-0.089921 0.085223,-0.037052 0.1640614,-0.071348 0.1751958,-0.076215 0.011134,-0.00487 0.022528,-0.00948 0.025319,-0.010253 0.019996,-0.00553 0.088055,-0.031311 0.096258,-0.036457 0.00555,-0.00348 0.012377,-0.00673 0.015173,-0.00721 0.00879,-0.00152 0.2983367,-0.1017065 0.314283,-0.1087459 0.00835,-0.00369 0.020448,-0.00792 0.026884,-0.00942 0.020527,-0.00476 0.2007789,-0.060312 0.2165716,-0.066744 0.00836,-0.0034 0.021459,-0.00757 0.029119,-0.00927 0.062289,-0.013777 0.119943,-0.03092 0.1290779,-0.038379 0.00604,-0.00493 0.013743,-0.0063 0.017117,-0.00304 0.00337,0.00326 0.012111,0.00205 0.019413,-0.00268 0.0073,-0.00473 0.021989,-0.010119 0.032636,-0.011966 0.010647,-0.00185 0.097486,-0.022801 0.1929756,-0.046565 0.1666314,-0.041468 0.4574987,-0.1070494 0.5171208,-0.1165935 0.015688,-0.00251 0.054568,-0.01009 0.086401,-0.016842 0.031832,-0.00675 0.076191,-0.014854 0.098575,-0.018004 0.022384,-0.00315 0.095606,-0.015361 0.1627166,-0.027134 0.1815268,-0.031846 0.4039927,-0.064935 0.6154653,-0.091543 0.2322217,-0.029219 0.417389,-0.051054 0.437673,-0.051613 0.00841,-2.315e-4 0.088601,-0.00765 0.1782016,-0.016484 0.3706972,-0.036551 0.7117628,-0.049869 1.4880968,-0.05811 0.4262556,-0.00452 0.8347404,-0.00457 0.907744,-1.094e-4 0.073003,0.00446 0.1750213,0.00996 0.2267063,0.01222 0.1006401,0.00439 0.3751836,0.023565 0.5340125,0.037288 0.053372,0.00461 0.1246179,0.010618 0.1583235,0.013347 0.033706,0.00273 0.075077,0.00641 0.091937,0.00818 0.075276,0.00789 0.1351733,0.014197 0.1634905,0.017202 0.055458,0.00589 0.3872498,0.049311 0.4446895,0.058201 0.030937,0.00479 0.074645,0.01084 0.097129,0.013449 0.022484,0.00261 0.066197,0.00891 0.097139,0.013997 0.030942,0.00509 0.070057,0.01096 0.086923,0.013046 0.016865,0.00209 0.053689,0.00816 0.081831,0.013501 0.028141,0.00534 0.064969,0.011602 0.081838,0.013915 0.016869,0.00231 0.1204627,0.020896 0.2302077,0.041295 0.109744,0.020399 0.213342,0.039253 0.230217,0.041897 0.01687,0.00264 0.07214,0.013246 0.122804,0.023559 0.05067,0.010313 0.105927,0.020804 0.1228,0.023313 0.01687,0.00251 0.15734,0.030032 0.312149,0.061163 0.154809,0.031131 0.292979,0.058553 0.307045,0.060938 0.01407,0.00238 0.117704,0.023554 0.230308,0.047043 0.112603,0.023489 0.216244,0.044793 0.230312,0.047342 0.01407,0.00255 0.07626,0.015762 0.138205,0.029362 0.06194,0.0136 0.154076,0.032983 0.204739,0.043074 0.10983,0.021875 0.168508,0.033993 0.358271,0.073992 0.486245,0.1024921 0.952478,0.1945181 1.253745,0.2474669 0.132232,0.02324 0.263444,0.04643 0.291582,0.051532 0.05784,0.010488 0.214519,0.034228 0.276114,0.041838 0.02249,0.00278 0.0639,0.00886 0.09203,0.013507 0.158609,0.026222 0.537048,0.066097 0.827673,0.08721 0.290428,0.021098 0.412072,0.02446 0.831651,0.02298 0.549129,-0.00194 0.971176,-0.026823 1.39588,-0.082311 0.174825,-0.022841 0.270279,-0.035724 0.295087,-0.039826 0.154621,-0.025565 0.306433,-0.043867 0.312814,-0.03771 0.0044,0.00421 0.01411,0.2770417 0.02166,0.6062834 l 0.01371,0.5986213 -0.166095,0.020547 c -0.09135,0.011301 -0.191295,0.023075 -0.222094,0.026165 -0.0308,0.00309 -0.08347,0.00932 -0.117051,0.01385 -0.03358,0.00453 -0.06424,0.00752 -0.06813,0.00666 -0.0039,-8.652e-4 -0.06577,0.00381 -0.137511,0.010394 -0.554144,0.050843 -1.972248,0.078747 -2.383884,0.046908 -0.160161,-0.012388 -0.451637,-0.042147 -0.601475,-0.061408 -0.09483,-0.01219 -0.186823,-0.023751 -0.204436,-0.025691 -0.01761,-0.00194 -0.04354,-0.00606 -0.05762,-0.00916 -0.01408,-0.0031 -0.04169,-0.00758 -0.06137,-0.00996 -0.01968,-0.00238 -0.05668,-0.00829 -0.08223,-0.013138 -0.02555,-0.00485 -0.06467,-0.010997 -0.08693,-0.013671 -0.02226,-0.00267 -0.07042,-0.011006 -0.107017,-0.018517 -0.03659,-0.00751 -0.08493,-0.015866 -0.107418,-0.018567 -0.02249,-0.0027 -0.08434,-0.013483 -0.137459,-0.023962 -0.05312,-0.010478 -0.110671,-0.020957 -0.127899,-0.023286 -0.01723,-0.00233 -0.105011,-0.018731 -0.195075,-0.03645 -0.09006,-0.017718 -0.177564,-0.034626 -0.194445,-0.037574 -0.01688,-0.00295 -0.1113,-0.021864 -0.209821,-0.042037 -0.09852,-0.020173 -0.192934,-0.038736 -0.209807,-0.041252 -0.01687,-0.00252 -0.0376,-0.00697 -0.04607,-0.0099 -0.0085,-0.00293 -0.03149,-0.00746 -0.05117,-0.010053 -0.01968,-0.0026 -0.05085,-0.00886 -0.06928,-0.013925 -0.01842,-0.00506 -0.03578,-0.00911 -0.03857,-0.009 -0.0028,1.099e-4 -0.01767,-0.0023 -0.03305,-0.00535 -0.01539,-0.00306 -0.03949,-0.00773 -0.05356,-0.010383 -0.04625,-0.00873 -0.105094,-0.020633 -0.29173,-0.059035 -0.101347,-0.020853 -0.195769,-0.039917 -0.209827,-0.042364 -0.03752,-0.00653 -0.300659,-0.059455 -0.383808,-0.077193 -0.07198,-0.015356 -0.296247,-0.058952 -0.429833,-0.083556 -0.03939,-0.00726 -0.115382,-0.021973 -0.168861,-0.032705 C 10.76877,5.2876484 10.681269,5.2706244 10.627802,5.2605484 10.574327,5.250467 10.477621,5.2320451 10.412893,5.2196051 10.260223,5.1902642 9.8028037,5.1054868 9.7631293,5.0991792 9.7462535,5.0964962 9.6979149,5.0881047 9.6557102,5.0805315 9.5637413,5.0640286 9.5883046,5.0679409 9.2210276,5.0112964 8.8743589,4.9578302 8.9124773,4.9631498 8.6331305,4.9292531 8.3579397,4.8958606 8.3614374,4.8961875 8.0661395,4.8762753 7.4240734,4.8329803 6.0920607,4.8835594 5.268261,4.9825163 4.968786,5.0184901 4.789982,5.042502 4.606851,5.0713386 2.8031369,5.3553588 1.7164357,5.8921682 1.3450153,6.6826226 1.191911,7.0084581 1.1570295,7.5340688 1.2409955,8.2500448 c 0.02492,0.2124951 0.1129788,0.7042682 0.1583961,0.8845823 0.00914,0.036303 0.021198,0.084285 0.026786,0.106626 0.039661,0.158556 0.080899,0.3153585 0.098794,0.3756531 0.1226081,0.4130998 0.2424213,0.7549178 0.374876,1.0694918 0.2439353,0.579338 0.5689638,1.154645 0.9614656,1.701815 0.7142003,0.995637 1.5634466,1.828997 2.4443461,2.39862 0.8661713,0.5601 1.654156,0.892641 2.4975791,1.054018 0.2890464,0.0553 0.6769081,0.09913 0.9610534,0.108595 0.2453309,0.0082 1.090708,-0.0109 1.2387392,-0.02795 0.372123,-0.04285 0.743441,-0.140701 1.050803,-0.276911 0.311844,-0.138196 0.756838,-0.395477 1.24704,-0.720996 0.03882,-0.02578 0.08646,-0.05721 0.105874,-0.06985 0.07242,-0.04715 0.157589,-0.104391 0.198231,-0.133227 0.02307,-0.01637 0.04523,-0.02982 0.04926,-0.02989 0.004,-7e-5 0.02825,-0.01545 0.05383,-0.03418 0.02559,-0.01873 0.06357,-0.04338 0.08441,-0.05479 0.02084,-0.01141 0.03782,-0.02428 0.03775,-0.02862 -7.5e-5,-0.0043 0.0047,-0.008 0.01055,-0.0081 0.0059,-1.02e-4 0.03655,-0.01765 0.06817,-0.03899 0.03161,-0.02134 0.07338,-0.04791 0.09282,-0.05903 0.08025,-0.04592 0.207096,-0.127395 0.210131,-0.134969 0.0018,-0.0045 0.0074,-0.0082 0.01251,-0.0083 0.0051,-8.9e-5 0.08767,-0.04578 0.183516,-0.101543 0.09585,-0.05576 0.233406,-0.131528 0.305688,-0.168376 0.07228,-0.03685 0.138091,-0.07292 0.146241,-0.08015 0.0082,-0.0072 0.01629,-0.01162 0.01809,-0.0097 0.0018,0.0019 0.04521,-0.01569 0.09646,-0.03906 0.159121,-0.07254 0.173855,-0.07914 0.18429,-0.0825 0.0056,-0.0018 0.06942,-0.02558 0.141869,-0.05285 0.07245,-0.02727 0.138584,-0.05118 0.146964,-0.05313 0.0084,-0.002 0.07005,-0.01887 0.137036,-0.03759 0.06699,-0.01872 0.139914,-0.0368 0.162056,-0.04017 0.02214,-0.0034 0.044,-0.0085 0.04858,-0.01149 0.0046,-0.0029 0.02535,-0.0077 0.04615,-0.01057 0.0208,-0.0029 0.04467,-0.0073 0.05303,-0.0099 0.04005,-0.01244 0.32781,-0.04917 0.463041,-0.05911 0.08013,-0.0059 0.890271,-0.02078 0.903862,-0.01661 0.0076,0.0023 0.07815,0.0056 0.156713,0.0074 0.226524,0.0049 0.517758,0.03792 0.761361,0.08627 0.05348,0.01061 0.101836,0.0202 0.107465,0.02131 0.02971,0.0058 0.114854,0.02991 0.21525,0.06086 0.06204,0.01913 0.115106,0.03538 0.117923,0.03612 0.0028,7.36e-4 0.01899,0.0069 0.03594,0.01371 0.01695,0.0068 0.03542,0.0132 0.04105,0.01422 0.0056,10e-4 0.02066,0.0073 0.03339,0.01406 0.01274,0.0067 0.02317,0.0086 0.02318,0.0042 2.5e-5,-0.0044 0.0035,-0.0032 0.0077,0.0027 0.0082,0.01139 0.120202,0.05669 0.131813,0.05331 0.0038,-0.0011 0.0098,0.0019 0.01328,0.0067 0.0035,0.0048 0.07462,0.03927 0.158018,0.07659 l 0.151625,0.06786 0.01224,0.701065 0.01224,0.701064 -0.08503,-0.05077 c -0.276748,-0.165245 -0.539146,-0.300079 -0.753867,-0.387376 -0.129622,-0.0527 -0.260965,-0.09939 -0.313023,-0.111264 -0.01971,-0.0045 -0.07963,-0.01891 -0.133151,-0.03202 -0.102099,-0.02502 -0.182261,-0.0407 -0.250742,-0.04906 -0.02249,-0.0027 -0.0662,-0.0088 -0.09713,-0.0135 -0.110772,-0.01675 -0.16288,-0.01873 -0.489895,-0.01862 -0.944695,3.13e-4 -1.426768,0.117693 -2.109031,0.51353 -0.206567,0.119845 -0.507269,0.309618 -0.783037,0.494173 -0.04005,0.0268 -0.105708,0.06926 -0.145913,0.09434 -0.0402,0.02509 -0.07306,0.04905 -0.07302,0.05326 7.4e-5,0.0042 -0.0051,0.0077 -0.01145,0.0079 -0.0063,1.1e-4 -0.0336,0.01665 -0.06058,0.03675 -0.02698,0.0201 -0.05205,0.03661 -0.05571,0.03667 -0.0037,6.4e-5 -0.0215,0.01185 -0.03964,0.02619 -0.01814,0.01434 -0.03569,0.02612 -0.039,0.02618 -0.0098,1.72e-4 -0.141392,0.08779 -0.144936,0.09654 -0.0018,0.0044 -0.0094,0.0081 -0.01698,0.0083 -0.0075,1.32e-4 -0.01987,0.0061 -0.0274,0.01323 -0.0158,0.015 -0.03805,0.02956 -0.09073,0.05937 -0.02065,0.01169 -0.05698,0.03421 -0.08072,0.05005 -0.02374,0.01584 -0.05908,0.03769 -0.07852,0.04857 -0.01944,0.01087 -0.0467,0.02734 -0.06056,0.03659 -0.01386,0.0093 -0.05475,0.03307 -0.09087,0.05293 -0.03612,0.01986 -0.07061,0.04016 -0.07665,0.0451 -0.02708,0.02217 -0.483199,0.259994 -0.504272,0.262933 -0.0026,3.73e-4 -0.03829,0.01664 -0.07921,0.03616 -0.103057,0.04915 -0.340922,0.138059 -0.46006,0.171953 -0.05463,0.01554 -0.106166,0.03104 -0.114521,0.03444 -0.0084,0.0034 -0.02206,0.0073 -0.03045,0.0086 -0.01447,0.0023 -0.240491,0.05486 -0.294586,0.06855 -0.03864,0.0098 -0.05056,0.01178 -0.121927,0.02048 -0.03633,0.0044 -0.06959,0.01033 -0.07392,0.01311 -0.0043,0.0028 -0.02954,0.0074 -0.05603,0.01022 -0.02648,0.0028 -0.06645,0.0087 -0.08881,0.01294 -0.02236,0.0043 -0.04342,0.0072 -0.0468,0.0065 -0.0034,-7.16e-4 -0.06521,0.0064 -0.137418,0.0157 -0.144663,0.01873 -0.1916628,0.02351 -0.4164251,0.04231 -0.1748845,0.01463 -0.8215961,0.02567 -0.9890462,0.01689 z"
     id="path28" /><path
     style="opacity:0.301;fill:#2e3434;fill-opacity:0.34902;stroke-width:1.08851"
     d="m 9.4680008,17.179836 c -0.00222,-0.0019 -0.1692591,-0.0032 -0.3712028,-0.003 -0.2019437,2.43e-4 -0.4384108,-0.0053 -0.5254823,-0.01224 -0.2645802,-0.02119 -0.2796367,-0.02243 -0.3166362,-0.02607 -0.019668,-0.0019 -0.1162881,-0.01547 -0.2147123,-0.03008 -0.098424,-0.01461 -0.1858408,-0.02675 -0.1942591,-0.02697 -0.022192,-5.82e-4 -0.3277555,-0.0618 -0.4298778,-0.08613 -0.047881,-0.01141 -0.096256,-0.02185 -0.1074988,-0.02321 -0.011243,-0.0014 -0.027371,-0.005 -0.035839,-0.0081 -0.00847,-0.0031 -0.082257,-0.02332 -0.1639748,-0.04495 -0.1418938,-0.03756 -0.5360924,-0.155926 -0.5793019,-0.173947 -0.079307,-0.03308 -0.2002217,-0.07485 -0.2002519,-0.06918 -1.58e-5,0.0038 -0.00392,9.56e-4 -0.00868,-0.0063 -0.00475,-0.0072 -0.018564,-0.01368 -0.030693,-0.01438 -0.012129,-7.06e-4 -0.022109,-0.0045 -0.022176,-0.0083 -6.79e-5,-0.0039 -0.019743,-0.01357 -0.043723,-0.02152 -0.02398,-0.0079 -0.069696,-0.02567 -0.1015916,-0.03937 -0.031896,-0.01371 -0.060728,-0.02209 -0.064071,-0.01862 -0.00334,0.0035 -0.00616,0.0019 -0.00625,-0.0036 -1.354e-4,-0.0078 -0.055972,-0.03359 -0.082259,-0.03806 -0.00281,-4.81e-4 -0.038678,-0.01732 -0.079699,-0.03744 -0.041021,-0.02011 -0.074544,-0.0343 -0.074496,-0.03153 1.302e-4,0.0075 -0.1683649,-0.07644 -0.1773246,-0.0883 -0.00422,-0.0056 -0.00767,-0.0064 -0.00768,-0.0018 -1.2e-6,0.0046 -0.00739,0.0013 -0.016408,-0.0075 -0.00902,-0.0087 -0.020183,-0.0134 -0.024809,-0.01043 -0.00463,0.003 -0.010015,0.0017 -0.011975,-0.0027 -0.00569,-0.01299 -0.1399403,-0.08046 -0.1465255,-0.07364 -0.00328,0.0034 -0.00605,0.0015 -0.00614,-0.0042 -9.94e-5,-0.0057 -0.019831,-0.01861 -0.043848,-0.0287 -0.024017,-0.01009 -0.046009,-0.02099 -0.04887,-0.0242 -0.00942,-0.01059 -0.1739421,-0.09868 -0.1839833,-0.0985 -0.0054,9.4e-5 -0.011416,-0.0035 -0.013364,-0.008 -0.00475,-0.01093 -0.2406644,-0.150788 -0.2539491,-0.150556 -0.00575,1.01e-4 -0.012056,-0.0036 -0.014008,-0.0083 -0.00379,-0.009 -0.2516779,-0.170664 -0.261505,-0.170493 -0.00321,5.6e-5 -0.017931,-0.01072 -0.032705,-0.02395 -0.014774,-0.01323 -0.038717,-0.03002 -0.053207,-0.03732 -0.01449,-0.0073 -0.037766,-0.0234 -0.051723,-0.03578 -0.013957,-0.01238 -0.031207,-0.0224 -0.038332,-0.02228 -0.00713,1.25e-4 -0.014555,-0.0038 -0.01651,-0.0086 -0.00339,-0.0084 -0.2400592,-0.184936 -0.2756593,-0.205568 -0.0094,-0.0054 -0.019427,-0.01265 -0.022291,-0.016 -0.012477,-0.01462 -0.1342636,-0.108756 -0.1405669,-0.108646 -0.00383,6.7e-5 -0.012176,-0.0062 -0.01854,-0.01399 -0.00636,-0.0078 -0.048808,-0.04392 -0.094321,-0.08034 C 3.7355365,15.126711 3.6723536,15.072905 3.5083058,14.926768 3.318135,14.75736 3.0580663,14.511384 3.0159472,14.461091 c -0.020836,-0.02488 -0.059225,-0.06413 -0.085308,-0.08723 -0.026083,-0.02309 -0.051342,-0.04851 -0.056131,-0.05647 -0.00479,-0.008 -0.044689,-0.05226 -0.088667,-0.09843 -0.043979,-0.04617 -0.1188602,-0.129006 -0.1664034,-0.18408 -0.047543,-0.05507 -0.099289,-0.113043 -0.1149913,-0.128819 -0.015702,-0.01578 -0.028586,-0.03081 -0.028631,-0.0334 -4.52e-5,-0.0026 -0.029496,-0.03959 -0.065446,-0.08222 -0.03595,-0.04263 -0.116403,-0.143162 -0.1787849,-0.223413 -0.062382,-0.08025 -0.1197202,-0.150897 -0.1274185,-0.156991 -0.0077,-0.0061 -0.014048,-0.01404 -0.014111,-0.01765 -1.361e-4,-0.0078 -0.1689993,-0.242842 -0.1987926,-0.276708 -0.011349,-0.0129 -0.020707,-0.02765 -0.020797,-0.03278 -8.95e-5,-0.0051 -0.00475,-0.0093 -0.010359,-0.0092 -0.00561,9.8e-5 -0.010316,-0.0067 -0.010463,-0.01512 -1.468e-4,-0.0084 -0.00486,-0.01521 -0.010463,-0.01512 -0.00561,9.8e-5 -0.010316,-0.0067 -0.010463,-0.01512 -1.468e-4,-0.0084 -0.00486,-0.01521 -0.010463,-0.01512 -0.00561,9.8e-5 -0.010282,-0.0048 -0.010388,-0.01078 -2.032e-4,-0.01164 -0.09186,-0.152184 -0.1047339,-0.160598 -0.00418,-0.0027 -0.010731,-0.01443 -0.014558,-0.026 -0.00383,-0.01157 -0.015092,-0.02985 -0.025033,-0.04064 -0.00994,-0.01079 -0.027125,-0.03654 -0.038186,-0.05723 -0.011061,-0.02069 -0.024248,-0.03755 -0.029304,-0.03746 -0.00506,8.8e-5 -0.00685,-0.0038 -0.004,-0.0086 0.00286,-0.0048 -0.00417,-0.01846 -0.015624,-0.03033 -0.011451,-0.01187 -0.018772,-0.02162 -0.01627,-0.02166 0.00474,-8.3e-5 -0.1220804,-0.209511 -0.1375181,-0.227086 -0.00485,-0.0055 -0.015207,-0.02485 -0.023008,-0.04295 -0.0078,-0.01809 -0.01898,-0.03282 -0.024842,-0.03271 -0.00586,1.02e-4 -0.00812,-0.0024 -0.00501,-0.0057 0.00311,-0.0032 -0.014453,-0.04078 -0.039023,-0.08346 -0.02457,-0.04269 -0.098448,-0.179943 -0.164173,-0.305013 -0.065725,-0.125071 -0.1233318,-0.228873 -0.1280146,-0.230673 -0.00468,-0.0018 -0.00599,-0.0075 -0.00291,-0.0127 0.00308,-0.0052 0.00151,-0.0094 -0.0035,-0.0093 -0.005,8.8e-5 -0.0094,-0.0056 -0.00977,-0.01258 C 1.0220178,11.65075 0.9965592,11.59496 0.9658143,11.533795 0.9350694,11.472625 0.9094814,11.42029 0.908952,11.417494 0.904993,11.396584 0.8217507,11.218556 0.8132357,11.212783 c -0.005927,-0.004 -0.007682,-0.0074 -0.0039,-0.0076 0.006495,-2.61e-4 -0.0485966,-0.140584 -0.096556,-0.245937 -0.0120669,-0.02651 -0.0226557,-0.05157 -0.0235306,-0.05569 -8.7491e-4,-0.0041 -0.0111094,-0.03027 -0.0227432,-0.05812 -0.0116338,-0.02784 -0.0354655,-0.08883 -0.0529593,-0.135527 -0.0174938,-0.04669 -0.0370301,-0.09684 -0.0434141,-0.111436 -0.006384,-0.01459 -0.0126253,-0.02996 -0.0138696,-0.03415 -0.001244,-0.0042 -0.003207,-0.0087 -0.004362,-0.01012 -0.001155,-0.0014 -0.003731,-0.01024 -0.005727,-0.01969 -0.005062,-0.02397 -0.028766,-0.09236 -0.0362281,-0.10452 -0.003405,-0.0055 -0.007396,-0.01695 -0.008869,-0.02534 -0.001473,-0.0084 -0.0274374,-0.09055 -0.0576995,-0.182582 C 0.4131152,10.130041 0.3613863,9.9542387 0.32842412,9.8314014 0.29546192,9.7085641 0.26572152,9.6012247 0.26233422,9.5928693 c -0.003387,-0.00836 -0.008452,-0.03351 -0.0112549,-0.0559 -0.002803,-0.02239 -0.009431,-0.042172 -0.0147294,-0.043961 -0.005298,-0.00179 -0.007653,-0.00658 -0.005234,-0.010657 0.00242,-0.00407 4.694e-5,-0.02544 -0.005273,-0.047484 C 0.18943842,9.2841889 0.11688401,8.9130705 0.09678099,8.774887 0.00845842,8.1677778 -0.01305423,7.5196011 0.03576581,6.9364979 0.04312714,6.8485748 0.05019056,6.7605555 0.0514623,6.7408995 c 0.0012717,-0.019656 0.0046805,-0.042664 0.007575,-0.051129 0.0028945,-0.00847 0.01020204,-0.043016 0.0162389,-0.076779 0.0060369,-0.033763 0.01908955,-0.088413 0.02900597,-0.1214439 0.009916,-0.033031 0.015427,-0.064108 0.0122458,-0.06906 -0.003181,-0.00495 -0.001548,-0.00908 0.003629,-0.00917 0.005177,-9.04e-5 0.0171778,-0.022101 0.0266683,-0.048913 0.0344398,-0.097295 0.18665093,-0.4000937 0.24811028,-0.4935733 0.0346315,-0.052675 0.0606455,-0.095731 0.0578088,-0.095682 -0.002837,4.95e-5 0.00272,-0.00877 0.0123476,-0.019603 0.009628,-0.010831 0.0624055,-0.07681 0.11728358,-0.1466202 0.0548781,-0.06981 0.13789557,-0.1646557 0.18448322,-0.2107688 0.0465876,-0.046113 0.1000523,-0.099026 0.11881033,-0.1175853 0.018758,-0.018559 0.036079,-0.033778 0.038491,-0.03382 C 0.93124408,5.2466284 1.0632503,5.1294506 1.066814,5.120123 1.068604,5.115443 1.076334,5.111503 1.084003,5.111373 1.091673,5.1112392 1.101496,5.104513 1.105841,5.096417 1.110181,5.088327 1.118319,5.081035 1.123914,5.080216 1.129514,5.0793972 1.14647,5.067301 1.161604,5.053335 1.176738,5.039369 1.191662,5.027898 1.194768,5.027844 1.204258,5.0276783 1.3554732,4.9200724 1.3589464,4.9110116 c 0.00179,-0.00467 0.00758,-0.00856 0.012878,-0.00865 0.013249,-2.313e-4 0.2243288,-0.1280971 0.2333827,-0.1413763 0.00402,-0.00589 0.00743,-0.00762 0.00758,-0.00384 1.476e-4,0.00378 0.082096,-0.035515 0.1820983,-0.087324 0.1000022,-0.051808 0.1864657,-0.094278 0.1921411,-0.094377 0.00568,-9.9e-5 0.010239,-0.00477 0.010141,-0.010376 -9.79e-5,-0.00561 0.00328,-0.00919 0.00751,-0.00795 0.011386,0.00332 0.1343237,-0.046876 0.1341856,-0.054788 -6.51e-5,-0.00373 0.00978,-0.0077 0.021877,-0.00883 0.012097,-0.00112 0.024638,-0.00576 0.027868,-0.010306 0.00323,-0.00454 0.015022,-0.010029 0.026203,-0.012187 0.011182,-0.00216 0.022572,-0.00695 0.025313,-0.010641 0.00274,-0.00369 0.01184,-0.00828 0.020221,-0.010195 0.00838,-0.00191 0.06311,-0.021842 0.1216197,-0.044286 0.1752839,-0.06724 0.4435675,-0.158264 0.6043584,-0.2050482 0.083132,-0.024188 0.1579825,-0.046932 0.166334,-0.050542 0.00835,-0.00361 0.019763,-0.00723 0.025358,-0.00805 0.047377,-0.00691 0.09746,-0.021127 0.1021391,-0.029001 0.00313,-0.00527 0.00934,-0.00741 0.013795,-0.00476 0.00735,0.00437 0.116244,-0.020441 0.1531516,-0.034893 0.00836,-0.00327 0.028648,-0.00793 0.04509,-0.010355 0.016442,-0.00242 0.048439,-0.00995 0.071104,-0.016723 0.022665,-0.00677 0.053666,-0.014091 0.06889,-0.016258 0.015224,-0.00217 0.047232,-0.00908 0.071128,-0.015366 0.05326,-0.014006 0.073959,-0.018619 0.1196766,-0.026671 0.019574,-0.00345 0.072174,-0.013825 0.1168904,-0.023062 0.044716,-0.00924 0.1039271,-0.019751 0.1315801,-0.023366 0.027653,-0.00361 0.053972,-0.00894 0.058487,-0.011845 0.00452,-0.0029 0.027656,-0.00745 0.051425,-0.010121 0.023768,-0.00267 0.1187175,-0.017912 0.2109982,-0.033882 0.092281,-0.015969 0.1883905,-0.031696 0.2135772,-0.034949 0.6019238,-0.077737 0.8545417,-0.1054655 1.2114066,-0.1329687 0.2737166,-0.021095 1.9419691,-0.043088 2.1821676,-0.028768 0.9009039,0.053709 1.4172045,0.1122792 2.1614514,0.2451986 0.174443,0.031155 0.326375,0.058091 0.337625,0.059857 0.01125,0.00177 0.09645,0.018349 0.189332,0.036849 0.09288,0.0185 0.180381,0.035349 0.194442,0.037442 0.01406,0.00209 0.08545,0.016298 0.158641,0.031567 0.07319,0.015269 0.146885,0.029997 0.163762,0.032728 0.01688,0.00273 0.09288,0.018136 0.168887,0.034233 0.07601,0.016096 0.149707,0.030972 0.163767,0.033056 0.01406,0.00208 0.08316,0.016598 0.153554,0.032254 0.07039,0.015655 0.141795,0.03054 0.158668,0.033079 0.01687,0.00254 0.118215,0.023605 0.225204,0.046815 0.106989,0.02321 0.206029,0.043902 0.22009,0.045983 0.01406,0.00208 0.044,0.00837 0.06654,0.013974 0.02254,0.00561 0.05248,0.012002 0.06654,0.014216 0.01406,0.00221 0.04401,0.00858 0.06654,0.014138 0.02253,0.00556 0.05248,0.012165 0.06655,0.014674 0.01407,0.00251 0.05782,0.011229 0.09723,0.019378 0.03941,0.00815 0.09468,0.019378 0.122829,0.024955 0.02815,0.00558 0.0673,0.013522 0.087,0.017657 0.01971,0.00413 0.05886,0.01208 0.087,0.017657 0.02815,0.00558 0.08342,0.016727 0.122825,0.024777 0.03941,0.00805 0.09007,0.018231 0.112588,0.022623 0.313326,0.061121 0.518893,0.099845 0.567934,0.1069851 0.01968,0.00287 0.0473,0.00746 0.06137,0.010198 0.01407,0.00274 0.06241,0.01101 0.107414,0.018371 0.04501,0.00736 0.116357,0.019401 0.158558,0.026757 0.0422,0.00736 0.09742,0.015757 0.122718,0.018671 0.04325,0.00498 0.07217,0.00923 0.132934,0.019535 0.03783,0.00642 0.354799,0.046752 0.413994,0.052685 0.150865,0.01512 0.418979,0.0385 0.490318,0.042757 0.381578,0.022769 0.443259,0.023435 1.066037,0.011519 0.281251,-0.00538 0.564767,-0.016009 0.657431,-0.024644 0.213211,-0.019867 0.473123,-0.049427 0.595482,-0.067723 0.01958,-0.00293 0.0608,-0.00832 0.09158,-0.011983 0.03079,-0.00366 0.104045,-0.013998 0.16279,-0.022969 0.05874,-0.00897 0.132676,-0.019516 0.164293,-0.023435 l 0.05748,-0.00713 0.007,0.1355376 c 0.0039,0.074546 0.01023,0.3466093 0.01414,0.6045857 l 0.0071,0.469048 -0.208635,0.025949 c -0.25529,0.031752 -0.606774,0.062525 -0.845258,0.074003 -0.09809,0.00472 -0.223127,0.011802 -0.277866,0.015736 -0.114207,0.00821 -1.222845,0.027122 -1.32277,0.022569 -0.03649,-0.00166 -0.135221,-0.00454 -0.219398,-0.00639 -0.16709,-0.00368 -0.267049,-0.010661 -0.531016,-0.037103 -0.254204,-0.025464 -0.247719,-0.024741 -0.347208,-0.038727 -0.05048,-0.0071 -0.09417,-0.012452 -0.0971,-0.011903 -0.0029,5.489e-4 -0.01685,-0.00164 -0.03093,-0.00486 -0.03237,-0.00741 -0.436204,-0.072053 -0.470487,-0.075313 -0.01405,-0.00134 -0.03247,-0.00471 -0.04093,-0.00751 -0.02248,-0.00742 -0.349336,-0.066139 -0.373965,-0.067183 -0.01151,-4.876e-4 -0.02533,-0.00341 -0.03071,-0.0065 -0.0084,-0.00484 -0.06784,-0.015787 -0.117154,-0.021587 -0.0084,-9.916e-4 -0.02226,-0.00428 -0.03073,-0.00731 -0.02169,-0.00775 -0.30533,-0.062848 -0.345113,-0.067034 -0.01811,-0.00191 -0.03705,-0.00592 -0.04209,-0.00891 -0.005,-0.003 -0.02476,-0.00751 -0.04381,-0.010042 -0.01905,-0.00253 -0.06229,-0.010758 -0.09608,-0.01829 -0.03379,-0.00753 -0.07524,-0.015909 -0.09212,-0.018617 -0.01688,-0.00271 -0.153929,-0.030194 -0.304563,-0.061082 -0.150633,-0.030888 -0.286506,-0.058137 -0.301939,-0.060554 -0.01543,-0.00242 -0.08795,-0.017072 -0.161144,-0.032565 -0.0732,-0.015494 -0.146894,-0.030524 -0.163774,-0.0334 -0.01688,-0.00288 -0.07427,-0.013851 -0.127536,-0.024388 -0.126472,-0.025018 -0.131453,-0.026035 -0.179511,-0.036636 -0.02252,-0.00497 -0.05476,-0.011272 -0.07164,-0.014007 -0.01688,-0.00274 -0.105487,-0.019797 -0.196911,-0.037916 -0.09143,-0.018118 -0.176625,-0.034763 -0.189335,-0.036988 -0.01271,-0.00223 -0.06686,-0.012702 -0.120338,-0.023282 -0.05348,-0.01058 -0.108736,-0.02109 -0.1228,-0.023355 -0.01406,-0.00227 -0.06932,-0.01279 -0.122801,-0.023389 -0.05348,-0.010598 -0.111037,-0.02141 -0.127912,-0.024027 -0.01687,-0.00262 -0.03989,-0.00664 -0.05115,-0.00894 -0.08473,-0.017302 -0.4359101,-0.082251 -0.4604588,-0.085161 -0.016864,-0.002 -0.042177,-0.00602 -0.056253,-0.00894 C 9.6979259,5.0871555 9.4659673,5.0462917 9.4357597,5.0425164 9.4188939,5.0404086 9.3544622,5.0303501 9.2925781,5.0201642 9.230694,5.0099784 9.1662613,4.9998637 9.1493943,4.9976871 9.1325273,4.9955105 9.09111,4.9892228 9.0573559,4.9837143 9.0236017,4.978206 8.9798849,4.9716516 8.9602074,4.9691491 8.4992529,4.9105257 8.3225149,4.8912626 8.1529196,4.8811607 8.1108034,4.8786521 8.0487752,4.8748235 8.0150793,4.8726526 7.6890826,4.8516506 6.9870943,4.8572049 6.4700849,4.884877 6.1700158,4.900938 5.6696926,4.936359 5.6194869,4.945097 5.6027089,4.948017 5.5454399,4.953877 5.4922216,4.958111 5.4390036,4.962351 5.3565352,4.970744 5.3089582,4.976766 5.2613812,4.982786 5.1926768,4.990894 5.1562818,4.994779 5.0821558,5.002689 4.6869434,5.056017 4.6475105,5.063428 c -0.013978,0.00263 -0.047572,0.00821 -0.074652,0.012404 -0.02708,0.00419 -0.058494,0.00958 -0.069809,0.011963 -0.011315,0.00238 -0.046379,0.0076 -0.077921,0.011583 -0.031541,0.00399 -0.073339,0.011407 -0.092884,0.01649 -0.019545,0.00508 -0.053846,0.012091 -0.076224,0.015573 -0.022378,0.00348 -0.066988,0.011501 -0.099133,0.01782 C 4.1247425,5.155581 4.0744255,5.165344 4.045073,5.17096 3.8118546,5.2155728 3.440015,5.3109775 3.1743751,5.3943582 2.179646,5.70659 1.5137823,6.1999458 1.3015508,6.7819826 c -0.025637,0.070307 -0.062287,0.2278534 -0.075837,0.3259976 -0.00582,0.042174 -0.012225,0.088183 -0.014226,0.1022423 -0.019579,0.1375357 -0.014002,0.6662359 0.0092,0.8718874 0.022523,0.1996599 0.026354,0.2307494 0.037622,0.3053251 0.00592,0.039164 0.013834,0.091808 0.017592,0.1169859 0.016429,0.1100494 0.075529,0.4220078 0.1011103,0.5337031 0.015356,0.067048 0.030433,0.1333358 0.033506,0.1473064 0.00307,0.013971 0.00814,0.033349 0.011254,0.043063 0.00312,0.00971 0.00807,0.029713 0.011007,0.04444 0.015637,0.078415 0.1224877,0.4585819 0.1679718,0.5976347 0.079943,0.2443979 0.1367123,0.4105449 0.1628214,0.4765289 0.017636,0.04457 0.038339,0.09699 0.046007,0.11649 0.062944,0.160072 0.1189621,0.296902 0.1388905,0.339255 0.01309,0.02782 0.031679,0.0688 0.04131,0.09107 0.041662,0.09635 0.060028,0.133774 0.1761614,0.359003 0.1046985,0.203053 0.1595849,0.302188 0.2908296,0.525292 0.186937,0.317776 0.559875,0.84135 0.832385,1.1686 0.00691,0.0083 0.040535,0.04902 0.074729,0.09049 0.057933,0.07027 0.089233,0.107053 0.1145415,0.134609 0.027012,0.02941 0.088105,0.09807 0.1352451,0.151987 0.02862,0.03274 0.080378,0.08897 0.1150178,0.124965 0.03464,0.03599 0.097388,0.101561 0.1394406,0.145704 0.4334421,0.454996 1.0232849,0.93766 1.5344636,1.255641 0.1923444,0.119649 0.2024173,0.125622 0.3938684,0.233569 0.5554727,0.313194 1.0727105,0.528221 1.6027352,0.666293 0.2356195,0.06138 0.5248134,0.119071 0.7113348,0.141908 0.042163,0.0052 0.088163,0.01108 0.1022235,0.01315 0.041805,0.0062 0.1845291,0.02115 0.2503438,0.02628 0.033704,0.0026 0.1072455,0.0087 0.1634257,0.01348 0.1612664,0.01374 0.9802699,0.0066 1.2155172,-0.01056 0.28555,-0.02085 0.530284,-0.06196 0.765835,-0.128618 0.107786,-0.0305 0.361958,-0.12114 0.426924,-0.152239 0.03013,-0.01442 0.07749,-0.03564 0.105241,-0.04715 0.100665,-0.04176 0.499126,-0.261445 0.666568,-0.367509 0.0111,-0.007 0.027,-0.01623 0.03534,-0.02045 0.0083,-0.0042 0.04584,-0.028 0.08333,-0.05285 0.03749,-0.02485 0.07037,-0.04522 0.07307,-0.04527 0.0027,-4.7e-5 0.05671,-0.03426 0.120012,-0.07604 0.06331,-0.04177 0.204382,-0.134885 0.313503,-0.206911 0.10912,-0.07203 0.207117,-0.135638 0.217769,-0.141361 0.01065,-0.0057 0.01931,-0.01391 0.01923,-0.01819 -7.5e-5,-0.0043 0.0044,-0.0079 0.0099,-0.008 0.01021,-1.78e-4 0.14246,-0.08152 0.151543,-0.09321 0.0027,-0.0035 0.02204,-0.01547 0.04288,-0.02653 0.02084,-0.01106 0.03783,-0.02398 0.03775,-0.02871 -8.2e-5,-0.0047 0.0043,-0.0087 0.0098,-0.0088 0.01064,-1.86e-4 0.163591,-0.09224 0.171877,-0.103444 0.0027,-0.0037 0.01089,-0.0081 0.01812,-0.0097 0.01653,-0.0037 0.09683,-0.05756 0.101218,-0.06792 0.0018,-0.0042 0.0094,-0.0078 0.01698,-0.0079 0.0075,-1.31e-4 0.0208,-0.0076 0.02946,-0.01654 0.0087,-0.009 0.01578,-0.01391 0.01584,-0.01099 1.4e-4,0.008 0.145392,-0.079 0.153777,-0.09213 0.004,-0.0063 0.0074,-0.0078 0.0076,-0.0034 3.48e-4,0.0094 0.09273,-0.04447 0.103489,-0.06039 0.004,-0.0059 0.0074,-0.0078 0.0076,-0.004 1.68e-4,0.0037 0.08675,-0.03793 0.192446,-0.0926 0.256808,-0.132824 0.41801,-0.202922 0.634575,-0.275945 0.09926,-0.03347 0.18732,-0.06339 0.19568,-0.06649 0.0084,-0.0031 0.02714,-0.0074 0.04174,-0.0096 0.0146,-0.0022 0.06489,-0.01358 0.111751,-0.02531 0.163746,-0.04099 0.378358,-0.07596 0.537927,-0.08767 0.04762,-0.0035 0.114078,-0.0089 0.147681,-0.01203 0.08069,-0.0075 0.813021,-0.02133 0.831772,-0.0157 0.008,0.0024 0.07428,0.006 0.147237,0.0081 0.16438,0.0046 0.324475,0.01664 0.464683,0.03499 0.05904,0.0077 0.123431,0.01569 0.1431,0.01771 0.05233,0.0054 0.07478,0.0091 0.09206,0.01522 0.0085,0.003 0.05223,0.01238 0.09726,0.02082 0.111228,0.02086 0.281538,0.0656 0.382741,0.100546 0.04597,0.01587 0.0836,0.02547 0.08361,0.02132 3e-5,-0.0041 0.0035,-0.0027 0.0077,0.0032 0.0098,0.01378 0.09494,0.04586 0.09497,0.0358 2.9e-5,-0.0042 0.0035,-0.003 0.0077,0.0026 0.0089,0.01171 0.289103,0.13453 0.308184,0.135073 0.007,1.94e-4 0.01283,0.0045 0.01291,0.0095 8.7e-5,0.005 0.0047,0.0062 0.01024,0.0026 0.0055,-0.0036 0.01016,-0.0025 0.01024,0.0024 8.6e-5,0.0049 0.02557,0.01894 0.05664,0.03119 l 0.05649,0.02226 0.01217,0.697471 c 0.0067,0.383609 0.0096,0.697516 0.0064,0.697572 -0.0032,5.5e-5 -0.05867,-0.03102 -0.123306,-0.06905 -0.262041,-0.15419 -0.566853,-0.307066 -0.755879,-0.379106 -0.05365,-0.02045 -0.111409,-0.04268 -0.128355,-0.04941 -0.03652,-0.0145 -0.126972,-0.04242 -0.154697,-0.04775 -0.01078,-0.0021 -0.06358,-0.01454 -0.117334,-0.0277 -0.05376,-0.01317 -0.109057,-0.02585 -0.122885,-0.0282 -0.01383,-0.0023 -0.03666,-0.0067 -0.05073,-0.0096 -0.01408,-0.0029 -0.04352,-0.0075 -0.06543,-0.01023 -0.02191,-0.0027 -0.04952,-0.0069 -0.06136,-0.0093 -0.176736,-0.03598 -0.982377,-0.02907 -1.280874,0.01099 -0.197375,0.02649 -0.315739,0.04782 -0.437198,0.07881 -0.09666,0.02466 -0.304044,0.0932 -0.38036,0.125709 -0.01666,0.0071 -0.03941,0.01676 -0.05054,0.02148 -0.249336,0.10551 -0.66179,0.338874 -1.040264,0.588574 -0.03327,0.02195 -0.09339,0.06048 -0.133597,0.0856 -0.0402,0.02513 -0.07306,0.04913 -0.07301,0.05334 7.3e-5,0.0042 -0.0041,0.0077 -0.0093,0.0078 -0.01259,2.2e-4 -0.237054,0.148149 -0.241168,0.158934 -0.0018,0.0047 -0.0098,0.0086 -0.0177,0.0088 -0.0079,1.39e-4 -0.01437,0.0043 -0.01429,0.0093 8.7e-5,0.005 -0.01021,0.01189 -0.02289,0.0153 -0.01267,0.0034 -0.03211,0.01458 -0.04319,0.02481 -0.01108,0.01023 -0.03708,0.02765 -0.05777,0.03871 -0.02069,0.01106 -0.03755,0.02398 -0.03747,0.0287 8.3e-5,0.0047 -0.0051,0.0087 -0.01149,0.0088 -0.01441,2.51e-4 -0.143702,0.08396 -0.148169,0.09593 -0.0018,0.0048 -0.0077,0.0088 -0.01325,0.0089 -0.0055,9.6e-5 -0.09258,0.05141 -0.193497,0.114028 -0.100923,0.06262 -0.240301,0.146319 -0.309729,0.186 -0.06943,0.03968 -0.12952,0.07699 -0.133539,0.08292 -0.004,0.0059 -0.0074,0.0075 -0.0076,0.0036 -1.71e-4,-0.0039 -0.07647,0.03251 -0.169582,0.08102 -0.168507,0.08778 -0.386939,0.18821 -0.440141,0.202362 -0.01536,0.0041 -0.02783,0.01228 -0.02773,0.01822 1.04e-4,0.0059 -0.0025,0.0082 -0.0058,0.005 -0.0048,-0.0046 -0.114357,0.03026 -0.197006,0.06273 -0.0084,0.0033 -0.01628,0.0059 -0.0176,0.0059 -0.0043,-2.01e-4 -0.108704,0.0322 -0.124419,0.03859 -0.0084,0.0034 -0.02466,0.0076 -0.03622,0.0094 -0.01157,0.0018 -0.03983,0.0086 -0.06281,0.01526 -0.06753,0.01945 -0.345891,0.07812 -0.372912,0.07859 -0.01365,2.38e-4 -0.02762,0.0051 -0.03104,0.01091 -0.0034,0.0058 -0.0097,0.0084 -0.01404,0.0058 -0.0043,-0.0026 -0.07612,0.0058 -0.159611,0.01858 -0.08349,0.01277 -0.158678,0.02349 -0.167087,0.0238 -0.0084,3.21e-4 -0.05651,0.0054 -0.106896,0.0113 -0.1568214,0.01835 -0.351737,0.03592 -0.4650374,0.04192 -0.059779,0.0032 -0.1129749,0.0085 -0.118213,0.01187 -0.00524,0.0034 -0.011338,0.0046 -0.013556,0.0027 z"
     id="path29" /><path
     style="opacity:0.301;fill:#2e3434;fill-opacity:0.34902;stroke-width:1.08851"
     d="M 8.9080339,17.172525 C 8.4211011,17.167267 7.9424405,17.110352 7.420936,16.995699 7.187427,16.944363 6.709467,16.805877 6.4732396,16.721111 c -0.065217,-0.0234 -0.1254835,-0.04387 -0.1339261,-0.04547 -0.00844,-0.0016 -0.017684,-0.0052 -0.020537,-0.0079 -0.013747,-0.01328 -0.084807,-0.03896 -0.093082,-0.03364 -0.00517,0.0033 -0.00947,0.0019 -0.00955,-0.0031 -2.172e-4,-0.01244 -0.050783,-0.03365 -0.062418,-0.02617 -0.00513,0.0033 -0.0094,0.0018 -0.00949,-0.0033 -1.767e-4,-0.01012 -0.1276728,-0.0645 -0.1503096,-0.0641 -0.0077,1.35e-4 -0.014048,-0.0027 -0.014111,-0.0064 -9.28e-5,-0.0053 -0.1448161,-0.07093 -0.164492,-0.07457 -0.01609,-0.003 -0.086327,-0.037 -0.1482557,-0.0718 -0.039163,-0.02201 -0.074617,-0.03782 -0.078787,-0.03514 -0.00417,0.0027 -0.00919,9.45e-4 -0.011155,-0.0039 -0.00524,-0.0128 -0.1631219,-0.09386 -0.1631297,-0.08375 7e-7,0.0047 -0.00348,0.0033 -0.00773,-0.0031 -0.00902,-0.01365 -0.2426229,-0.14204 -0.257947,-0.141772 -0.00571,10e-5 -0.011967,-0.0032 -0.01391,-0.0074 -0.0066,-0.01419 -0.2375736,-0.151394 -0.2543588,-0.151101 -0.00553,9.7e-5 -0.01166,-0.0038 -0.013615,-0.0087 -0.00196,-0.0049 -0.070867,-0.0525 -0.1531374,-0.105786 -0.08227,-0.05329 -0.1780448,-0.116434 -0.212832,-0.140319 -0.034787,-0.02389 -0.06675,-0.04337 -0.071027,-0.04329 -0.00428,7.5e-5 -0.012979,-0.0059 -0.019336,-0.01333 -0.015517,-0.01808 -0.2337319,-0.178809 -0.2336143,-0.172074 5.09e-5,0.0029 -0.010527,-0.0046 -0.023505,-0.01677 -0.037282,-0.03487 -0.2918182,-0.231618 -0.2926631,-0.226216 -4.184e-4,0.0027 -0.012063,-0.0071 -0.025877,-0.02169 -0.013814,-0.01461 -0.089856,-0.08176 -0.1689833,-0.149233 -0.2855994,-0.243527 -0.6003072,-0.543837 -0.8337511,-0.795608 -0.076777,-0.0828 -0.1531754,-0.162939 -0.1697735,-0.178075 -0.016598,-0.01514 -0.027921,-0.02756 -0.025161,-0.02761 0.00276,-4.8e-5 -0.042937,-0.05547 -0.1015473,-0.12317 -0.058611,-0.06769 -0.1294853,-0.151368 -0.1574995,-0.185939 -0.028014,-0.03457 -0.055611,-0.06278 -0.061326,-0.06268 -0.00572,10e-5 -0.00754,-0.0028 -0.00406,-0.0064 0.00348,-0.0036 -0.044168,-0.07047 -0.1058902,-0.148593 -0.061722,-0.07812 -0.1514291,-0.196428 -0.1993488,-0.262908 -0.04792,-0.06648 -0.094391,-0.126482 -0.1032684,-0.133339 -0.00888,-0.0069 -0.012737,-0.01253 -0.00858,-0.0126 0.00835,-1.45e-4 -0.046257,-0.07365 -0.058593,-0.07887 -0.00424,-0.0018 -0.00782,-0.0098 -0.00796,-0.01771 -1.387e-4,-0.0079 -0.00484,-0.01437 -0.010448,-0.01427 -0.00561,9.8e-5 -0.010316,-0.0067 -0.010463,-0.01512 -1.468e-4,-0.0084 -0.00562,-0.0152 -0.012163,-0.01509 -0.00654,1.14e-4 -0.00911,-0.0027 -0.00571,-0.0062 0.00646,-0.0067 -0.092641,-0.154789 -0.1120966,-0.167526 -0.00613,-0.004 -0.00792,-0.0074 -0.00398,-0.0076 0.00699,-2.74e-4 -0.1552444,-0.262712 -0.1685178,-0.272599 -0.00368,-0.0027 -0.00766,-0.0099 -0.00885,-0.01594 -0.00321,-0.01633 -0.1114014,-0.189866 -0.1236465,-0.198332 -0.00581,-0.004 -0.00762,-0.0074 -0.00402,-0.0076 0.0036,-1.45e-4 -0.023906,-0.05596 -0.061136,-0.124032 -0.037229,-0.06807 -0.1108374,-0.205623 -0.1635738,-0.305676 -0.052736,-0.100054 -0.1011215,-0.185196 -0.1075223,-0.189206 -0.0064,-0.004 -0.00865,-0.0074 -0.00499,-0.0076 0.00365,-1.46e-4 -0.025536,-0.06741 -0.0648659,-0.149465 -0.03933,-0.08206 -0.099181,-0.212966 -0.1330022,-0.290911 -0.0338212,-0.07794 -0.0654919,-0.143188 -0.0703795,-0.144984 -0.004888,-0.0018 -0.006711,-0.0069 -0.004051,-0.0114 0.005251,-0.0088 -0.11817766,-0.311502 -0.13542101,-0.33207 -0.005794,-0.0069 -0.007872,-0.01261 -0.004618,-0.01267 0.00479,-8.4e-5 -0.0935608,-0.278483 -0.11817615,-0.334518 -0.003668,-0.0084 -0.007193,-0.01976 -0.007833,-0.02536 -0.003397,-0.02972 -0.0453037,-0.147101 -0.0524729,-0.146976 -0.004607,8.1e-5 -0.006037,-0.0038 -0.003177,-0.0086 0.006912,-0.01163 -0.0373362,-0.158023 -0.0490251,-0.162196 -0.005024,-0.0018 -0.007034,-0.0068 -0.004467,-0.01112 0.002567,-0.0043 -0.0221346,-0.1056186 -0.0548929,-0.2251069 C 0.26674527,9.5976407 0.2539084,9.5460686 0.20812045,9.3390098 0.19267391,9.2691586 0.17715382,9.2051734 0.17363137,9.1968204 0.17010891,9.1884674 0.1680088,9.1778176 0.16896446,9.1731543 0.1699201,9.168491 0.16034313,9.1158763 0.14768229,9.0562328 0.13502145,8.9965892 0.12237244,8.930093 0.11957339,8.9084633 0.11677433,8.8868336 0.10688507,8.8204552 0.09759728,8.7609557 0.05563139,8.492114 0.01933976,8.0485982 0.01206121,7.7156291 0.00685177,7.4773149 0.0179609,7.1787992 0.04358565,6.8685294 0.06760757,6.577667 0.11715128,6.4049886 0.25681312,6.1253516 0.37665554,5.885398 0.50100727,5.696681 0.64605053,5.5346423 c 0.0242297,-0.027069 0.0418349,-0.049177 0.0391226,-0.04913 -0.0167493,2.923e-4 0.22119037,-0.2239593 0.34327367,-0.3235261 0.041482,-0.033831 0.088109,-0.072841 0.1036158,-0.086688 0.015507,-0.013847 0.030276,-0.025419 0.032821,-0.025715 0.00254,-2.964e-4 0.045499,-0.029069 0.095455,-0.06394 0.049955,-0.034871 0.1463485,-0.096949 0.2142073,-0.1379513 0.067859,-0.041002 0.1266618,-0.079696 0.1306734,-0.085987 0.00401,-0.00629 0.00742,-0.00831 0.00757,-0.00449 2.735e-4,0.00685 0.3746823,-0.1794514 0.3843945,-0.1912653 0.00275,-0.00334 0.013838,-0.00777 0.024648,-0.00984 0.021265,-0.00408 0.1594474,-0.066366 0.1676495,-0.07557 0.00275,-0.00309 0.011859,-0.00716 0.020241,-0.00905 0.023023,-0.00519 0.1867215,-0.070208 0.1924543,-0.076434 0.00275,-0.00299 0.014156,-0.00707 0.02534,-0.00907 0.038111,-0.00682 0.3649865,-0.1248038 0.3682788,-0.1329275 0.0018,-0.00445 0.00686,-0.00597 0.011235,-0.00337 0.00438,0.0026 0.070784,-0.014595 0.1475734,-0.03821 0.07679,-0.023616 0.1459511,-0.043048 0.1536921,-0.043183 0.00774,-1.351e-4 0.01399,-0.0051 0.013886,-0.011044 -1.037e-4,-0.00594 0.00338,-0.00867 0.00775,-0.00608 0.00437,0.0026 0.062577,-0.00962 0.1293557,-0.027154 0.066778,-0.01753 0.1269472,-0.031969 0.133709,-0.032087 0.00676,-1.18e-4 0.025121,-0.00559 0.040798,-0.012156 0.015677,-0.00657 0.039954,-0.013338 0.053948,-0.015045 0.029228,-0.00357 0.3326955,-0.071789 0.3555834,-0.079939 0.00836,-0.00298 0.026655,-0.00675 0.040651,-0.00839 0.023987,-0.0028 0.294842,-0.050599 0.4168909,-0.07357 0.030752,-0.00579 0.084536,-0.014089 0.1195208,-0.018448 0.034984,-0.00436 0.063533,-0.012191 0.063442,-0.017405 -9.1e-5,-0.00521 0.00445,-0.00674 0.010083,-0.00339 0.00564,0.00335 0.084673,-0.00444 0.1756376,-0.017301 0.090964,-0.012865 0.2432595,-0.032278 0.3384342,-0.043141 0.095175,-0.010863 0.1798823,-0.022457 0.188239,-0.025765 0.00836,-0.00331 0.018721,-0.00532 0.023033,-0.00448 0.00431,8.45e-4 0.1234657,-0.00937 0.264788,-0.022693 0.3914596,-0.036913 0.4151465,-0.037902 1.2661898,-0.052853 0.8675576,-0.015241 1.1767707,-0.012592 1.5505394,0.013285 0.2980356,0.020634 0.3744018,0.025839 0.4339905,0.029581 0.025271,0.00159 0.1333234,0.012682 0.2401161,0.024656 0.1067926,0.011974 0.1987459,0.021072 0.2043407,0.020219 0.00559,-8.535e-4 0.017102,10e-4 0.02557,0.00412 0.018576,0.00685 0.1780776,0.026369 0.190482,0.023316 0.00483,-0.00119 0.015705,4.219e-4 0.024175,0.00358 0.017693,0.00659 0.2829966,0.043932 0.2941713,0.041402 0.00407,-9.22e-4 0.014332,8.012e-4 0.022799,0.00383 0.022031,0.00788 0.1907752,0.035964 0.2010396,0.033461 0.00473,-0.00115 0.015526,5.65e-4 0.023998,0.00382 0.013731,0.00527 0.5271531,0.097429 0.5780761,0.1037608 0.01124,0.0014 0.02737,0.00505 0.03584,0.00812 0.01801,0.00652 0.121846,0.025521 0.156201,0.028579 0.01303,0.00116 0.02813,0.00466 0.03355,0.00777 0.0087,0.00497 0.07331,0.016806 0.117237,0.021457 0.0084,8.927e-4 0.03405,0.00655 0.05694,0.012568 0.02289,0.00602 0.05533,0.012204 0.0721,0.013744 0.01677,0.00154 0.03511,0.00555 0.04076,0.00891 0.0057,0.00336 0.02938,0.00796 0.05272,0.010234 0.02334,0.00227 0.04668,0.00665 0.05187,0.00973 0.0052,0.00308 0.02502,0.0077 0.04407,0.010269 0.01906,0.00257 0.08287,0.015113 0.14181,0.027878 0.05894,0.012765 0.109153,0.021153 0.11158,0.018638 0.0024,-0.00251 0.0097,-3.398e-4 0.01616,0.00483 0.0065,0.00517 0.02764,0.011033 0.04706,0.013025 0.01943,0.00199 0.04225,0.00639 0.05073,0.00977 0.0085,0.00338 0.0292,0.00762 0.04606,0.00942 0.01686,0.0018 0.03759,0.00603 0.04606,0.0094 0.0085,0.00337 0.0292,0.0076 0.04606,0.0094 0.01686,0.0018 0.03759,0.00594 0.04606,0.00919 0.0182,0.00699 0.200593,0.044488 0.230746,0.047438 0.01148,0.00112 0.02531,0.00459 0.03073,0.0077 0.0085,0.00487 0.08111,0.019127 0.112146,0.02202 0.0056,5.237e-4 0.0301,0.00623 0.05441,0.012685 0.02431,0.00645 0.05656,0.013485 0.07167,0.015626 0.01511,0.00214 0.05512,0.010132 0.08891,0.017756 0.03379,0.00762 0.07295,0.016051 0.08702,0.018725 0.01407,0.00267 0.10503,0.02174 0.202131,0.042369 0.0971,0.020629 0.200743,0.041915 0.230312,0.047304 0.05438,0.00991 0.126433,0.024148 0.191947,0.03793 0.12805,0.026938 0.625508,0.1221369 0.701,0.134151 0.01688,0.00269 0.10204,0.017232 0.189253,0.032326 0.08721,0.015093 0.179272,0.030217 0.204574,0.033608 0.0253,0.00339 0.05521,0.00772 0.06647,0.00963 0.05617,0.00951 0.270923,0.04016 0.306745,0.043776 0.02248,0.00227 0.07307,0.00844 0.112433,0.01372 0.08199,0.010993 0.09795,0.012613 0.347395,0.035277 0.101135,0.00919 0.21834,0.018776 0.260457,0.021305 0.04212,0.00253 0.127125,0.0082 0.188908,0.012595 0.187165,0.013326 1.033736,0.00554 1.325708,-0.012189 0.222605,-0.013518 0.48249,-0.037013 0.636458,-0.057539 0.01959,-0.00261 0.0631,-0.00802 0.09668,-0.012024 0.03359,-0.004 0.07709,-0.00993 0.09666,-0.013171 0.01958,-0.00324 0.05485,-0.00814 0.07838,-0.010892 0.02353,-0.00275 0.09908,-0.012962 0.167893,-0.022696 0.06881,-0.00973 0.144569,-0.020327 0.168354,-0.023541 l 0.04324,-0.00584 0.01049,0.600784 c 0.0058,0.334497 0.0066,0.6033091 0.0016,0.606481 -0.0078,0.00502 -0.09146,0.017206 -0.133485,0.019446 -0.0084,4.486e-4 -0.07959,0.0083 -0.158179,0.017441 -0.07859,0.00914 -0.19314,0.020324 -0.254551,0.024843 -0.06141,0.00452 -0.117857,0.010306 -0.125434,0.012859 -0.0076,0.00255 -0.0855,0.00858 -0.173156,0.013382 -0.08766,0.00481 -0.255671,0.014044 -0.373361,0.020529 -0.200103,0.011025 -1.50852,0.030069 -1.677374,0.024413 -0.0421,-0.00141 -0.152385,-0.00916 -0.245086,-0.01723 -0.0927,-0.00807 -0.190333,-0.014668 -0.216961,-0.014669 -0.02663,-1.3e-6 -0.0485,-0.00379 -0.04859,-0.00843 -8.1e-5,-0.00463 -0.01749,-0.00687 -0.03865,-0.00497 -0.02116,0.0019 -0.04298,8.583e-4 -0.04849,-0.00231 -0.0093,-0.00535 -0.0658,-0.012014 -0.178572,-0.021066 -0.02528,-0.00203 -0.125771,-0.016073 -0.223316,-0.03121 -0.09754,-0.015136 -0.181477,-0.024872 -0.186516,-0.021635 -0.005,0.00324 -0.0092,0.00162 -0.0093,-0.0036 -9.1e-5,-0.00522 -0.02354,-0.012171 -0.0521,-0.015454 -0.06712,-0.00771 -0.672739,-0.117217 -0.881422,-0.159371 -0.08854,-0.017886 -0.164516,-0.031696 -0.168826,-0.03069 -0.0043,0.00101 -0.01477,-9.102e-4 -0.02324,-0.00426 -0.01534,-0.00606 -0.521695,-0.1077195 -0.57222,-0.1148814 -0.01458,-0.00207 -0.06327,-0.012036 -0.108194,-0.022153 -0.04492,-0.010116 -0.08407,-0.017946 -0.087,-0.017398 -0.0029,5.478e-4 -0.01684,-0.0018 -0.03093,-0.00522 -0.01408,-0.00342 -0.03712,-0.00834 -0.05119,-0.010928 -0.01407,-0.00259 -0.08547,-0.017358 -0.158664,-0.03282 -0.0732,-0.015461 -0.146888,-0.030218 -0.163762,-0.032793 -0.01687,-0.00258 -0.102084,-0.019738 -0.189355,-0.03814 -0.165328,-0.034861 -0.385789,-0.078149 -0.429847,-0.084402 -0.01406,-0.00199 -0.07623,-0.013956 -0.138156,-0.026579 -0.06193,-0.012624 -0.126403,-0.025233 -0.143281,-0.028022 -0.01688,-0.00279 -0.115886,-0.021689 -0.22002,-0.042001 -0.172953,-0.033736 -0.233479,-0.045014 -0.276282,-0.051478 -0.0084,-0.00127 -0.02457,-0.00514 -0.03585,-0.00859 -0.01128,-0.00345 -0.0376,-0.00802 -0.05848,-0.010169 -0.02089,-0.00214 -0.04181,-0.00617 -0.04649,-0.00896 -0.0047,-0.00278 -0.02671,-0.00726 -0.04896,-0.00996 -0.02225,-0.0027 -0.083908,-0.013473 -0.137025,-0.023951 C 9.8896938,5.119714 9.832138,5.1091582 9.8149088,5.1067346 9.7976797,5.104311 9.7493062,5.0959715 9.7074122,5.0882023 9.6655183,5.0804331 9.61718,5.0720594 9.5999938,5.0695939 9.5828076,5.0671285 9.5089001,5.0548188 9.4357549,5.042239 9.3626097,5.0296592 9.2866662,5.017458 9.2669917,5.0151254 9.2473171,5.0127928 9.1529807,4.9986417 9.0573552,4.9836787 8.6595575,4.9214331 8.1791213,4.8741395 7.8364301,4.8634922 c -0.1589186,-0.00494 -1.1460413,0.00926 -1.3459818,0.019355 -0.3119391,0.015754 -0.822136,0.054016 -1.0084197,0.075626 -0.036389,0.00422 -0.073044,0.00782 -0.081455,0.008 -0.00841,1.774e-4 -0.056512,0.0054 -0.1068911,0.011606 -0.050379,0.00621 -0.1167938,0.013987 -0.1475893,0.017292 -0.030795,0.00331 -0.092622,0.011047 -0.1373915,0.017203 -0.04477,0.00616 -0.1042982,0.014066 -0.1322853,0.017578 -0.027987,0.00351 -0.087507,0.01189 -0.1322671,0.018619 -0.04476,0.00673 -0.095118,0.014131 -0.1119062,0.016449 -0.016788,0.00232 -0.051116,0.00778 -0.076284,0.012129 -0.065337,0.011301 -0.070717,0.012162 -0.127137,0.020357 -0.095418,0.013859 -0.4673106,0.087974 -0.6047601,0.1205233 -0.075419,0.01786 -0.146268,0.034561 -0.1574428,0.037113 -0.040256,0.00919 -0.4072916,0.1117338 -0.4618202,0.1290193 -0.030683,0.00973 -0.065714,0.020102 -0.077847,0.023056 -0.044708,0.010886 -0.3533563,0.1254104 -0.3625662,0.1345306 -0.00524,0.00519 -0.015711,0.00954 -0.023273,0.00967 -0.00756,1.32e-4 -0.032581,0.00975 -0.0556,0.021369 -0.023018,0.011621 -0.045243,0.021189 -0.049388,0.021261 C 2.6095504,5.5947136 2.2657081,5.7749195 2.1218323,5.8637881 1.8845937,6.0103245 1.6291506,6.2379811 1.5032527,6.41508 c -0.010446,0.014694 -0.036244,0.050749 -0.05733,0.080121 -0.048113,0.067023 -0.1363524,0.2555559 -0.167064,0.3569507 -0.02124,0.070124 -0.054053,0.2402988 -0.066089,0.3427485 -0.019203,0.1634619 -0.018874,0.5521358 6.69e-4,0.7904411 0.00574,0.070021 0.010857,0.1341875 0.011365,0.1425931 8.227e-4,0.013591 0.017591,0.1461228 0.027041,0.2137153 0.00196,0.01399 0.00742,0.055202 0.012132,0.091583 0.00714,0.05508 0.025626,0.1594247 0.080156,0.4524738 0.015744,0.084613 0.053183,0.2530302 0.072273,0.325119 0.011829,0.044671 0.024307,0.096414 0.027728,0.1149841 0.00342,0.018571 0.022993,0.091665 0.043493,0.1624311 0.0205,0.070767 0.039816,0.1400966 0.042924,0.1540665 0.00311,0.01397 0.010292,0.039088 0.015964,0.055818 0.00567,0.01673 0.010965,0.034997 0.011763,0.040592 7.973e-4,0.0056 0.0061,0.021567 0.011775,0.035492 0.00568,0.013925 0.012294,0.034463 0.014701,0.045641 0.01112,0.051649 0.1656984,0.5030138 0.1770825,0.5170778 0.00448,0.0055 0.00872,0.01344 0.00942,0.01758 0.00355,0.02088 0.0514,0.153001 0.072539,0.200279 0.029896,0.06686 0.033599,0.07597 0.041187,0.101275 0.00418,0.01395 0.019352,0.0504 0.033709,0.08101 0.014357,0.0306 0.030081,0.06475 0.034944,0.07588 0.088635,0.202968 0.3134925,0.646532 0.4100043,0.808795 0.016511,0.02776 0.040161,0.06751 0.052555,0.08833 0.012394,0.02082 0.032533,0.05489 0.044754,0.07571 0.012221,0.02082 0.040809,0.06737 0.06353,0.103435 0.022721,0.03607 0.04695,0.07466 0.053842,0.08576 0.015621,0.02516 0.3047433,0.443501 0.3474179,0.502696 0.017246,0.02392 0.040631,0.05665 0.051965,0.07272 0.027847,0.03948 0.1022588,0.137246 0.1151349,0.151262 0.00572,0.0062 0.017459,0.0215 0.026091,0.03394 0.00863,0.01244 0.020373,0.02772 0.026091,0.03394 0.00572,0.0062 0.02424,0.02943 0.041159,0.05158 0.016919,0.02214 0.033571,0.04251 0.037005,0.04525 0.00343,0.0027 0.032616,0.03895 0.064851,0.08046 0.032234,0.04151 0.071859,0.0899 0.088055,0.107544 0.016196,0.01764 0.04351,0.04887 0.060697,0.0694 0.017187,0.02053 0.040605,0.04737 0.052038,0.05965 0.011434,0.01227 0.039526,0.04402 0.062428,0.07053 0.067488,0.07815 0.1021313,0.11684 0.1352284,0.151035 0.017138,0.01771 0.073236,0.07622 0.1246625,0.130033 0.1052232,0.110103 0.4101548,0.406508 0.5198644,0.505329 0.1109631,0.09995 0.3242582,0.278489 0.4233218,0.354343 0.028408,0.02175 0.053995,0.04233 0.056859,0.04572 0.016513,0.01957 0.4756262,0.341463 0.5239494,0.367352 0.015618,0.0084 0.029985,0.01863 0.031928,0.0228 0.00194,0.0042 0.010032,0.0075 0.017977,0.0073 0.00794,-1.39e-4 0.014515,0.0038 0.014601,0.0087 8.56e-5,0.0049 0.012886,0.01514 0.028445,0.02275 0.015559,0.0076 0.068854,0.03937 0.1184322,0.0706 0.049578,0.03123 0.092249,0.05674 0.094823,0.0567 0.00257,-4.5e-5 0.024641,0.01279 0.049038,0.02852 0.041037,0.02646 0.1897686,0.108348 0.3635334,0.200145 0.1459474,0.0771 0.519039,0.249535 0.6169405,0.285133 0.028227,0.01026 0.062882,0.02354 0.07701,0.0295 0.014128,0.006 0.034924,0.0141 0.046213,0.01809 0.028453,0.01006 0.1076653,0.03895 0.1385739,0.05054 0.047932,0.01797 0.3534631,0.112091 0.4306902,0.13267 0.042269,0.01126 0.098783,0.02661 0.125586,0.0341 0.1292766,0.03614 0.5517287,0.112607 0.7187298,0.13009 0.0281,0.0029 0.060301,0.0071 0.071557,0.0093 0.011257,0.0022 0.048041,0.006 0.081743,0.0084 0.033701,0.0025 0.075078,0.0064 0.091948,0.0088 0.047502,0.0066 0.1359406,0.01162 0.3522309,0.02016 0.1975494,0.0078 1.0365357,-0.01065 1.17248,-0.02578 0.2102243,-0.0234 0.5262623,-0.08533 0.6657823,-0.130465 0.03905,-0.01263 0.09154,-0.02941 0.116643,-0.03728 0.0527,-0.01652 0.156786,-0.05463 0.190024,-0.06958 0.01252,-0.0056 0.03302,-0.01439 0.04556,-0.01947 0.104283,-0.04225 0.15739,-0.0678 0.335316,-0.161336 0.209901,-0.110342 0.315067,-0.168587 0.394923,-0.218723 0.03327,-0.02089 0.06959,-0.0437 0.08071,-0.05069 0.01112,-0.007 0.02704,-0.01611 0.03538,-0.02027 0.0083,-0.0042 0.03332,-0.0196 0.0555,-0.03431 0.05422,-0.03595 0.06724,-0.044 0.117997,-0.07297 0.02392,-0.01365 0.04573,-0.02785 0.04847,-0.03154 0.0027,-0.0037 0.02203,-0.01605 0.04287,-0.02745 0.02084,-0.0114 0.03782,-0.02428 0.03775,-0.02861 -7.6e-5,-0.0043 0.0047,-0.008 0.01062,-0.0081 0.0097,-1.7e-4 0.169001,-0.101414 0.181017,-0.115058 0.0027,-0.0031 0.02236,-0.01512 0.04357,-0.02665 0.02121,-0.01154 0.04617,-0.02799 0.05546,-0.03657 0.0093,-0.0086 0.03425,-0.02508 0.05546,-0.03667 0.02121,-0.01159 0.04617,-0.02809 0.05546,-0.03667 0.0093,-0.0086 0.03425,-0.02508 0.05546,-0.03667 0.02121,-0.01159 0.0471,-0.02925 0.05753,-0.03925 0.01043,-0.01 0.02375,-0.01826 0.02959,-0.01837 0.0058,-1.02e-4 0.01053,-0.0055 0.01042,-0.01208 -1.14e-4,-0.0065 0.0028,-0.009 0.0064,-0.0055 0.0068,0.0065 0.06346,-0.03035 0.07662,-0.04984 0.004,-0.006 0.0074,-0.0074 0.0076,-0.0033 2.62e-4,0.0068 0.109487,-0.06079 0.121238,-0.07506 0.0027,-0.0033 0.02205,-0.01512 0.04289,-0.02618 0.02084,-0.01106 0.03782,-0.02425 0.03774,-0.02931 -8.8e-5,-0.0051 0.0043,-0.0065 0.0098,-0.0033 0.0055,0.0032 0.01911,-0.0036 0.03033,-0.01523 0.01122,-0.01162 0.02384,-0.02168 0.02803,-0.02235 0.02142,-0.0034 0.08339,-0.04311 0.08322,-0.05326 -1.13e-4,-0.0064 0.0028,-0.0088 0.0064,-0.0053 0.0077,0.0075 0.06442,-0.02522 0.06422,-0.03705 -7.7e-5,-0.0044 0.0064,-0.0081 0.01443,-0.0083 0.008,-1.4e-4 0.02165,-0.0076 0.03031,-0.01656 0.0087,-0.009 0.01579,-0.01342 0.01585,-0.0099 6.2e-5,0.0035 0.01373,-0.002 0.03038,-0.0122 0.01665,-0.01023 0.03022,-0.02144 0.03016,-0.0249 -6.1e-5,-0.0035 0.0056,-0.0065 0.01263,-0.0067 0.007,-2.25e-4 0.05439,-0.02451 0.105296,-0.05405 0.0509,-0.02953 0.166842,-0.09249 0.257642,-0.139904 0.0908,-0.04741 0.167334,-0.08913 0.170076,-0.0927 0.0027,-0.0036 0.01271,-0.0079 0.02214,-0.0096 0.0094,-0.0017 0.06183,-0.0238 0.116437,-0.04904 0.0546,-0.02524 0.116388,-0.05178 0.137299,-0.05898 0.02091,-0.0072 0.03794,-0.01759 0.03784,-0.0231 -9.6e-5,-0.0055 0.0036,-0.0078 0.0082,-0.005 0.0046,0.0028 0.09146,-0.02374 0.192961,-0.05886 0.101502,-0.03512 0.193636,-0.06402 0.204742,-0.06421 0.01111,-1.94e-4 0.02011,-0.0052 0.02,-0.01115 -1.03e-4,-0.0059 0.0041,-0.0082 0.0094,-0.0051 0.0053,0.0031 0.04991,-0.004 0.09917,-0.01581 0.27504,-0.0661 0.494777,-0.09002 0.970336,-0.105598 0.31429,-0.0103 0.460197,-0.01055 0.664912,-0.0012 0.144246,0.0066 0.265953,0.01115 0.270459,0.01008 0.0045,-0.0011 0.01512,3.76e-4 0.02358,0.0032 0.0085,0.0028 0.09262,0.01362 0.187022,0.02394 0.0944,0.01032 0.234757,0.03174 0.311912,0.0476 0.07715,0.01586 0.14948,0.03001 0.160724,0.03143 0.01124,0.0014 0.03354,0.0076 0.04954,0.01373 0.016,0.0061 0.03287,0.0087 0.03748,0.0058 0.0046,-0.003 0.01,-0.0019 0.01193,0.0023 0.0031,0.0067 0.201462,0.0705 0.229094,0.07373 0.0056,6.57e-4 0.01256,0.0038 0.01542,0.0069 0.0099,0.01084 0.09246,0.0383 0.09249,0.03075 2.9e-5,-0.0042 0.0035,-0.0028 0.0077,0.0029 0.0093,0.01275 0.342797,0.157823 0.354048,0.154025 0.0044,-0.0015 0.008,0.0013 0.0081,0.0061 8.4e-5,0.0048 0.02106,0.01638 0.04662,0.02563 l 0.04647,0.01682 0.0092,0.686505 c 0.005,0.377578 0.0064,0.689402 0.0029,0.692941 -0.008,0.0083 -0.05954,-0.01353 -0.08534,-0.03611 -0.01097,-0.0096 -0.0293,-0.02025 -0.04073,-0.02366 -0.01143,-0.0034 -0.02717,-0.01237 -0.03498,-0.0199 -0.0078,-0.0075 -0.02075,-0.01359 -0.02876,-0.01345 -0.008,1.4e-4 -0.01463,-0.0034 -0.01471,-0.0078 -7.8e-5,-0.0044 -0.02445,-0.02035 -0.05416,-0.03535 -0.02971,-0.01501 -0.0772,-0.04034 -0.105526,-0.05629 -0.09831,-0.05535 -0.412049,-0.203341 -0.509062,-0.240123 -0.05365,-0.02034 -0.111402,-0.04235 -0.128346,-0.04891 -0.07218,-0.02794 -0.199124,-0.06496 -0.261415,-0.07623 -0.01407,-0.0025 -0.0348,-0.0067 -0.04606,-0.0093 -0.301411,-0.06876 -0.389778,-0.07514 -0.919102,-0.06631 -0.421313,0.007 -0.596079,0.01722 -0.713232,0.04158 -0.01118,0.0023 -0.0478,0.0079 -0.08138,0.01229 -0.03358,0.0044 -0.09535,0.01547 -0.137264,0.02453 -0.04191,0.0091 -0.08764,0.01894 -0.101611,0.02195 -0.01397,0.003 -0.05052,0.01276 -0.08122,0.02165 -0.0307,0.0089 -0.06267,0.01796 -0.07104,0.02014 -0.03913,0.01023 -0.266668,0.09278 -0.305716,0.110917 -0.02413,0.0112 -0.05981,0.02704 -0.0793,0.03519 -0.108022,0.04517 -0.544684,0.284832 -0.655036,0.359509 -0.01476,0.01 -0.03594,0.02305 -0.04705,0.02902 -0.01112,0.006 -0.03382,0.02 -0.05045,0.03118 -0.01663,0.01118 -0.04481,0.02809 -0.06262,0.03758 -0.01781,0.0095 -0.03763,0.02381 -0.04404,0.03182 -0.0064,0.008 -0.0164,0.01465 -0.0222,0.01475 -0.0058,1.01e-4 -0.02537,0.01192 -0.04351,0.02626 -0.01814,0.01434 -0.03629,0.02613 -0.04034,0.0262 -0.0041,7.1e-5 -0.0222,0.01186 -0.04034,0.0262 -0.01814,0.01434 -0.03787,0.02616 -0.04385,0.02626 -0.006,1.04e-4 -0.01087,0.0036 -0.01086,0.0078 -2.9e-5,0.0042 -0.01798,0.01666 -0.03998,0.02767 -0.022,0.01101 -0.04898,0.0287 -0.05997,0.03929 -0.01098,0.0106 -0.02268,0.01932 -0.02599,0.01938 -0.01032,1.8e-4 -0.120611,0.07561 -0.128292,0.08774 -0.004,0.0063 -0.0074,0.0079 -0.0076,0.0034 -3.34e-4,-0.0092 -0.09422,0.05506 -0.09926,0.06793 -0.0018,0.0046 -0.0076,0.0084 -0.01289,0.0085 -0.01246,2.17e-4 -0.203795,0.125211 -0.211772,0.138348 -0.0033,0.0055 -0.0091,0.0096 -0.0127,0.009 -0.01333,-0.0019 -0.06704,0.03193 -0.06686,0.04216 1.01e-4,0.0058 -0.0038,0.0082 -0.0086,0.0053 -0.0048,-0.0029 -0.01827,0.004 -0.0299,0.01522 -0.01164,0.01123 -0.02389,0.02046 -0.02724,0.02052 -0.01077,1.88e-4 -0.282273,0.169894 -0.28855,0.180362 -0.0033,0.0056 -0.01014,0.01 -0.01513,0.0098 -0.0091,-2.9e-4 -0.317741,0.176514 -0.32707,0.187369 -0.0027,0.0032 -0.0096,0.0067 -0.01516,0.0078 -0.0056,0.0011 -0.09888,0.04684 -0.207314,0.101624 -0.108432,0.05478 -0.218801,0.108135 -0.245265,0.118565 -0.02646,0.01043 -0.04806,0.02195 -0.048,0.02561 6.3e-5,0.0037 -0.01013,0.0076 -0.02265,0.0088 -0.01252,0.0012 -0.02428,0.007 -0.02614,0.01289 -0.0019,0.0059 -0.0071,0.0086 -0.01163,0.0059 -0.01021,-0.0061 -0.07142,0.01574 -0.07125,0.02538 6.7e-5,0.0039 -0.0079,0.0078 -0.0177,0.0087 -0.0098,9.16e-4 -0.05888,0.01607 -0.109056,0.03368 -0.05018,0.01761 -0.111213,0.03773 -0.135629,0.04471 -0.02442,0.007 -0.05636,0.01782 -0.07098,0.02407 -0.01462,0.0063 -0.03345,0.01241 -0.04184,0.01368 -0.05626,0.0085 -0.101653,0.02004 -0.101602,0.02579 6.5e-5,0.0037 -0.01927,0.0078 -0.04289,0.0092 -0.02362,0.0013 -0.04432,0.0068 -0.04598,0.01207 -0.0017,0.0053 -0.01438,0.0077 -0.02825,0.0053 -0.01524,-0.0026 -0.02514,3.37e-4 -0.02501,0.0076 1.15e-4,0.0066 -0.0042,0.0094 -0.0096,0.0062 -0.0094,-0.0056 -0.182908,0.02399 -0.214052,0.03652 -0.0084,0.0034 -0.0186,0.0055 -0.02276,0.0047 -0.0042,-7.94e-4 -0.07743,0.0087 -0.162823,0.02104 -0.5062327,0.07333 -0.8217137,0.09235 -1.4239749,0.08585 z"
     id="path30" /><path
     style="opacity:0.301;fill:#2e3434;fill-opacity:0.34902;stroke-width:1.08851"
     d="m 2.4355804,24.000016 c 1.027e-4,-0.06592 -0.00124,-0.480128 -0.00299,-0.920457 -0.011709,-2.953415 -0.010815,-5.797888 0.00217,-6.889726 0.00417,-0.350677 0.00824,-0.443818 0.01942,-0.444013 0.00309,-5.4e-5 0.1016896,0.07739 0.2191161,0.172095 0.5372864,0.43333 0.7776471,0.600718 1.0519853,0.73261 l 0.084857,0.0408 0.00257,0.150282 c 0.00141,0.08265 0.00243,1.717676 0.00226,3.63338 -1.678e-4,1.915703 2.179e-4,3.514069 8.57e-4,3.551923 l 0.00116,0.06883 -0.6907981,0.01207 -0.6907981,0.01207 z"
     id="path31" /><path
     style="opacity:0.301;fill:#2e3436;fill-opacity:1;stroke-width:1.08851"
     d="m 2.4386159,24.109696 c -0.00197,-0.0055 -0.00351,-0.169575 -0.00344,-0.364569 7.65e-5,-0.194993 -0.0011,-0.595473 -0.00262,-0.889954 -0.00152,-0.294481 -0.00242,-0.638694 -0.00201,-0.764919 4.076e-4,-0.126224 -3.264e-4,-0.429134 -0.00163,-0.673131 -0.0013,-0.243998 -0.00219,-0.560674 -0.00197,-0.703724 3.964e-4,-0.257624 3.417e-4,-0.350936 -8.861e-4,-1.509494 -3.478e-4,-0.32816 -2.608e-4,-0.709108 1.934e-4,-0.846553 4.541e-4,-0.137445 9.542e-4,-0.378414 0.00111,-0.535488 9.85e-4,-0.985381 0.00846,-1.837954 0.017546,-2.002205 0.00359,-0.0649 0.0074,-0.08128 0.016438,-0.07065 0.00647,0.0076 0.046543,0.04031 0.089053,0.07266 0.083156,0.06328 0.1203204,0.09258 0.1386382,0.109323 0.024367,0.02227 0.367346,0.292114 0.4510611,0.354883 0.1746804,0.130975 0.3883549,0.264912 0.562016,0.352287 l 0.1028976,0.05177 0.00335,0.191805 c 0.00424,0.242658 0.00806,1.302383 0.00531,1.471795 -0.00114,0.07014 -0.00133,0.315694 -4.217e-4,0.545675 9.064e-4,0.22998 0.00109,0.50995 4.133e-4,0.622156 -6.79e-4,0.112205 -6.468e-4,0.376113 7.16e-5,0.586463 7.185e-4,0.21035 7.731e-4,0.476553 1.214e-4,0.591563 -6.517e-4,0.115009 -5.672e-4,0.383507 1.876e-4,0.596661 7.55e-4,0.213154 7.637e-4,0.477063 1.97e-5,0.586465 -7.442e-4,0.109401 -6.032e-4,0.380193 3.132e-4,0.601758 9.164e-4,0.221566 8.586e-4,0.480887 -1.285e-4,0.576268 -9.87e-4,0.09538 -0.00138,0.36733 -8.677e-4,0.604329 l 9.268e-4,0.430908 -0.6860575,0.01198 c -0.4436277,0.0077 -0.6873206,0.0084 -0.6896323,0.0019 z"
     id="path32" /></svg>
