<?xml version="1.0" encoding="UTF-8" standalone="no"?>
<svg
   height="32"
   viewBox="0 0 32 32"
   width="32"
   version="1.1"
   id="svg3"
   sodipodi:docname="venetian-mask-symbolic.svg"
   inkscape:version="1.4 (e7c3feb100, 2024-10-09)"
   xml:space="preserve"
   xmlns:inkscape="http://www.inkscape.org/namespaces/inkscape"
   xmlns:sodipodi="http://sodipodi.sourceforge.net/DTD/sodipodi-0.dtd"
   xmlns="http://www.w3.org/2000/svg"
   xmlns:svg="http://www.w3.org/2000/svg"><sodipodi:namedview
     id="namedview1"
     pagecolor="#ffffff"
     bordercolor="#000000"
     borderopacity="0.25"
     inkscape:showpageshadow="2"
     inkscape:pageopacity="0.0"
     inkscape:pagecheckerboard="0"
     inkscape:deskcolor="#d1d1d1"
     inkscape:zoom="21.34"
     inkscape:cx="16.936703"
     inkscape:cy="26.512575"
     inkscape:window-width="1720"
     inkscape:window-height="1403"
     inkscape:window-x="20"
     inkscape:window-y="20"
     inkscape:window-maximized="0"
     inkscape:current-layer="svg3"
     inkscape:rotation="1" /><defs
     id="defs3" /><g
     fill="#222222"
     id="g3"
     transform="matrix(-0.07549192,0,0,0.07549192,16.548353,18.436351)"
     style="stroke-width:13.2465" /><path
     style="fill:#2e3434;fill-opacity:0.34902;stroke-width:1.08851"
     d="M 7.5205518,22.186525 C 6.818867,21.946906 5.6526033,21.150302 4.9998411,20.464782 3.9763345,19.389914 2.7878413,17.346974 2.0793019,15.444574 1.1113645,12.845701 0.66785654,9.1933591 1.1497066,7.7892515 c 0.5267651,-1.5349874 2.2773137,-2.4309621 5.25245,-2.688339 1.3765003,-0.1190766 2.0942946,0.00899 5.0906074,0.9079659 1.259941,0.3780349 2.702875,0.758092 3.20652,0.844571 1.444005,0.2479479 3.180152,-0.00821 5.884126,-0.8679774 2.162773,-0.6877294 2.296572,-0.7134027 4.043344,-0.7758266 2.945121,-0.1052469 4.765922,0.4409561 5.840072,1.751912 0.55599,0.6785623 0.661883,1.1864333 0.602523,2.8897582 -0.161145,4.6241254 -2.170401,9.2677864 -4.941647,11.4208184 -0.986761,0.766632 -1.610439,1.011382 -2.793876,1.096397 -1.406537,0.101049 -1.962919,-0.112753 -3.045018,-1.170073 -2.496003,-2.438854 -2.714385,-2.561132 -4.447394,-2.490265 -1.182647,0.04836 -1.285876,0.07535 -1.848366,0.48321 -0.327671,0.237594 -1.052391,0.885116 -1.61049,1.438937 -1.49027,1.478844 -1.857367,1.6796 -3.162045,1.729224 -0.7307781,0.0278 -1.2736732,-0.02747 -1.6999612,-0.173039 z M 24.684138,15.83179 c 2.396338,-0.952677 2.892909,-2.409604 1.483351,-4.48541 -0.673692,-0.992123 -1.173469,-1.3604349 -2.625513,-1.4894565 -2.08711,-0.1854513 -3.507325,0.3529825 -4.185798,1.9328355 -0.322071,0.749955 -0.874535,1.398875 -0.62306,2.158461 0.45804,1.383516 1.69785,1.560219 3.253228,1.867266 0.739393,0.145963 2.050098,0.2738 2.697792,0.0163 z M 11.106167,15.699533 c 0.840806,-0.359041 1.020241,-0.344404 1.518336,-1.0519 0.531747,-0.755295 0.402956,-0.698783 0.402956,-1.703472 0,-0.974436 -0.08373,-1.267021 -0.531982,-1.87349 -0.762439,-1.031565 -1.456474,-0.888684 -2.8124174,-1.003929 -1.9426012,-0.1651058 -2.7119264,0.03497 -3.5857147,1.379364 -0.6981392,1.074146 -0.7855966,0.756216 -0.3884057,1.984442 0.2657321,0.821723 0.1472189,1.167953 0.9797885,1.759245 0.7502427,0.532823 0.9250542,0.616013 2.4372245,0.633961 1.0531868,0.0125 1.4483918,0.102886 1.9802148,-0.12423 z"
     id="path2"
     sodipodi:nodetypes="csssccscssssssssscccsssssscssssssssccs" /><path
     style="fill:#000000;stroke-width:1.00001"
     d="M 3.8200001,23.224494 C 3.274189,22.851562 2.9102953,22.319948 2.4430003,21.777472 c -0.022446,0 -0.1468329,4.248101 -0.019348,9.436769 L 2.4429583,32 c 0.479037,0.0318 0.8977227,-0.01858 1.3770413,0 z M 23.730741,23.924586 C 27.601455,23.27773 31.064828,18.035177 31.878394,11.591378 32.053449,10.204861 32.037645,8.4557032 31.843004,7.6745621 31.653374,6.9135323 31.127996,6.0118125 30.543331,5.4439026 28.92615,3.8730632 25.160299,3.2168672 22.123617,3.9767747 21.612868,4.1045865 20.559755,4.4158877 19.783368,4.6685551 17.861537,5.2939957 17.098037,5.4529608 16.012135,5.4537441 14.929186,5.4545376 14.082023,5.2791542 12.179823,4.6604128 11.416815,4.4122229 10.37465,4.1052451 9.8639,3.9782393 7.5005958,3.3905649 4.552893,3.6433071 2.691719,4.5931969 1.4327682,5.2357292 0.64088586,6.1284691 0.23849203,7.3588741 0.05114147,7.9317387 0.02444753,8.1525035 0.00275492,9.3084686 -0.06791457,13.074327 1.226297,17.401322 3.2915287,20.303975 c 1.9200041,2.698538 4.1986296,3.959149 6.5481784,3.622668 1.3102149,-0.187636 1.8174329,-0.498635 3.3716709,-2.067326 1.189836,-1.200901 1.612463,-1.453075 2.555905,-1.525069 1.184273,-0.09037 1.724707,0.193671 3.12539,1.642652 1.365608,1.412696 2.183088,1.86571 3.593391,1.991308 0.352924,0.03143 0.913029,0.0118 1.244677,-0.04362 z m -2.090246,-1.935172 c -0.607393,-0.194525 -1.081089,-0.548593 -2.084797,-1.558295 -1.619306,-1.628976 -2.186624,-1.937578 -3.561939,-1.937578 -1.371116,0 -1.945044,0.311026 -3.546279,1.921824 -1.458834,1.467546 -1.921338,1.702715 -3.3460748,1.701377 C 7.6589922,22.115382 6.5137617,21.567586 5.1928033,20.247131 4.0053577,19.060136 2.8003753,16.970296 2.1209548,14.91952 1.3517299,12.597677 0.97922856,9.4150616 1.3381843,8.2316001 1.8266337,6.6212067 3.622551,5.6997813 6.6705063,5.4957612 c 1.5764917,-0.105524 2.1145898,0.00102 6.0016077,1.1887495 1.740468,0.5318064 2.342418,0.6199362 3.749172,0.5489071 1.327805,-0.067041 1.790942,-0.1712844 4.290718,-0.9657538 2.139494,-0.6799665 2.506202,-0.7472413 4.076563,-0.7478829 3.20604,-0.0013 5.322571,0.9784574 5.858184,2.711819 0.177154,0.5733078 0.184312,1.5860448 0.02129,3.0122609 -0.568759,4.975857 -3.159293,9.425921 -6.166589,10.593073 -0.786033,0.305066 -2.156462,0.378105 -2.860957,0.15248 z m 2.581883,-5.595833 c 2.162218,-0.653374 3.299576,-2.573682 2.689497,-4.540937 -0.321898,-1.037993 -1.118573,-1.828879 -2.349784,-2.3327056 -0.876823,-0.3588081 -2.594193,-0.3647093 -3.528016,-0.012123 -1.575817,0.5949866 -2.549083,1.8756066 -2.549083,3.3540756 0,1.665532 1.120805,3.019372 2.931953,3.541556 0.678719,0.195685 2.14223,0.190539 2.805433,-0.0099 z m -2.981931,-1.922797 c -0.89179,-0.363113 -1.547584,-1.02341 -1.547584,-1.558211 0,-0.573286 0.73292,-1.306464 1.640339,-1.640916 0.717616,-0.264496 2.226413,-0.258172 2.926922,0.01227 0.638953,0.246675 1.194123,0.677115 1.440591,1.116935 0.235658,0.420527 0.229976,0.559204 -0.04196,1.024258 -0.278344,0.476014 -0.985085,0.962491 -1.692306,1.164877 -0.677557,0.193897 -2.110972,0.131212 -2.726003,-0.11921 z M 10.294119,16.49783 c 0.08304,-0.02947 0.388783,-0.135144 0.679427,-0.234826 1.087253,-0.372895 2.080072,-1.355848 2.387398,-2.363675 0.176652,-0.579301 0.176797,-1.4603 3.02e-4,-2.040382 C 13.061677,10.874174 12.187885,10.017856 10.973513,9.5189669 10.473131,9.3133995 10.168944,9.2708576 9.1994534,9.2708576 c -1.3145275,0 -1.9731628,0.1950027 -2.8608481,0.8470104 -1.8643598,1.369379 -1.8626378,4.134606 -0.051425,5.563725 0.8602093,0.67874 0.8479169,0.685966 2.4893853,0.866099 0.8045377,0.08829 1.4344794,-0.02039 1.5175204,-0.04986 z M 8.0336865,14.584253 C 7.2909487,14.370869 6.6117728,13.909115 6.3287604,13.425117 6.0548334,12.956657 6.0506716,12.822229 6.2965114,12.383531 6.753091,11.568773 7.847905,11.077498 9.1994854,11.080884 c 1.3656126,0.0034 2.3476296,0.423316 2.8881476,1.23493 0.333129,0.500208 0.273793,0.91832 -0.198394,1.398001 -0.897282,0.911524 -2.4737304,1.267426 -3.8555525,0.870438 z"
     id="path1"
     sodipodi:nodetypes="csscccsssssscssssssssssscsssscsssscssssssssssssssssssssssscsscsssssccsssssssss" /></svg>
