<?xml version="1.0" encoding="UTF-8" standalone="no"?>
<svg
   height="32"
   viewBox="0 0 32 32"
   width="32"
   version="1.1"
   id="svg3"
   sodipodi:docname="venetian-unmask-symbolic.svg"
   inkscape:version="1.4 (e7c3feb100, 2024-10-09)"
   xml:space="preserve"
   xmlns:inkscape="http://www.inkscape.org/namespaces/inkscape"
   xmlns:sodipodi="http://sodipodi.sourceforge.net/DTD/sodipodi-0.dtd"
   xmlns="http://www.w3.org/2000/svg"
   xmlns:svg="http://www.w3.org/2000/svg"><sodipodi:namedview
     id="namedview1"
     pagecolor="#ffffff"
     bordercolor="#000000"
     borderopacity="0.25"
     inkscape:showpageshadow="2"
     inkscape:pageopacity="0.0"
     inkscape:pagecheckerboard="0"
     inkscape:deskcolor="#d1d1d1"
     inkscape:zoom="21.34"
     inkscape:cx="16.869728"
     inkscape:cy="22.727273"
     inkscape:window-width="3440"
     inkscape:window-height="1403"
     inkscape:window-x="0"
     inkscape:window-y="0"
     inkscape:window-maximized="1"
     inkscape:current-layer="svg3" /><defs
     id="defs3" /><g
     fill="#222222"
     id="g3"
     transform="matrix(-0.07549192,0,0,0.07549192,16.548353,18.436351)"
     style="stroke-width:13.2465" /><path
     style="fill:#2e3434;fill-opacity:0.34902;stroke-width:1.08851"
     d="m 13.367961,7.5205517 c 0.239619,-0.7016848 1.036223,-1.8679485 1.721743,-2.5207107 1.074868,-1.0235066 3.117808,-2.2119998 5.020208,-2.9205392 2.598873,-0.9679375 6.251215,-1.41144552 7.655322,-0.9295953 1.534988,0.5267651 2.430963,2.2773137 2.688339,5.25245 0.119077,1.3765003 -0.009,2.0942948 -0.907965,5.0906065 -0.378035,1.259941 -0.758092,2.702875 -0.844571,3.20652 -0.247948,1.444005 0.0082,3.180152 0.867977,5.884126 0.687729,2.162773 0.713403,2.296572 0.775827,4.043344 0.105246,2.945121 -0.440957,4.765922 -1.751912,5.840072 -0.678563,0.55599 -1.186434,0.661883 -2.889759,0.602523 -4.624125,-0.161145 -9.267786,-2.170401 -11.420818,-4.941647 -0.766632,-0.986761 -1.011382,-1.610439 -1.096397,-2.793876 -0.101049,-1.406537 0.112753,-1.962919 1.170073,-3.045018 2.438854,-2.496003 2.561132,-2.714385 2.490265,-4.447394 -0.04836,-1.182647 -0.07535,-1.285876 -0.48321,-1.848366 -0.237594,-0.327671 -0.885116,-1.052391 -1.438937,-1.61049 -1.478844,-1.49027 -1.6796,-1.857367 -1.729224,-3.1620437 -0.0278,-0.730779 0.02747,-1.2736736 0.173039,-1.6999616 z m 6.354735,17.1635853 c 0.952677,2.396338 2.409604,2.892909 4.48541,1.483351 0.992123,-0.673692 1.360435,-1.173469 1.489456,-2.625513 0.185452,-2.08711 -0.352982,-3.507325 -1.932835,-4.185798 -0.749955,-0.322071 -1.398875,-0.874535 -2.158461,-0.62306 -1.383516,0.45804 -1.560219,1.69785 -1.867266,3.253228 -0.145963,0.739393 -0.2738,2.050098 -0.0163,2.697792 z m 0.132257,-13.577971 c 0.359041,0.840806 0.344404,1.020241 1.0519,1.518336 0.755295,0.531747 0.698783,0.402956 1.703472,0.402956 0.974436,0 1.267021,-0.08373 1.87349,-0.531982 1.031565,-0.762439 0.888684,-1.456474 1.003929,-2.8124167 C 25.65285,7.7404583 25.452774,6.9711331 24.10838,6.0973448 23.034234,5.3992056 23.352164,5.3117482 22.123938,5.7089391 21.302215,5.9746712 20.955985,5.856158 20.364693,6.6887276 19.83187,7.4389703 19.74868,7.6137818 19.730732,9.1259523 c -0.0125,1.0531857 -0.102886,1.4483907 0.12423,1.9802137 z"
     id="path2"
     sodipodi:nodetypes="csssccscssssssssscccsssssscssssssssccs" /><path
     style="fill:#000000;stroke-width:1.00001"
     d="m 12.329992,3.82 c 0.372932,-0.5458111 0.904546,-0.9097048 1.447022,-1.3769998 0,-0.022446 -4.2481035,-0.1468329 -9.4367715,-0.019348 l -0.785759,0.019306 c -0.0318,0.479037 0.01858,0.8977227 0,1.3770413 z M 11.6299,23.73074 c 0.646856,3.870714 5.889409,7.334087 12.333208,8.147653 1.386517,0.175055 3.135675,0.159251 3.916816,-0.03539 0.76103,-0.18963 1.662749,-0.715008 2.230659,-1.299673 1.57084,-1.617181 2.227036,-5.383032 1.467128,-8.419714 -0.127812,-0.510749 -0.439113,-1.563862 -0.69178,-2.340249 -0.625441,-1.921831 -0.784406,-2.685331 -0.785189,-3.771233 -7.94e-4,-1.082949 0.17459,-1.930112 0.793331,-3.832312 0.24819,-0.763008 0.555168,-1.805173 0.682174,-2.3159217 C 32.163921,7.5005957 31.911179,4.5528929 30.961289,2.6917189 30.318757,1.4327681 29.426017,0.64088558 28.195612,0.23849178 27.622747,0.05114118 27.401982,0.02444728 26.246017,0.00275468 22.480159,-0.06791482 18.153164,1.2262969 15.250511,3.2915286 c -2.698538,1.9200041 -3.959149,4.1986296 -3.622668,6.5481787 0.187636,1.3102137 0.498635,1.8174317 2.067326,3.3716697 1.200901,1.189836 1.453075,1.612463 1.525069,2.555905 0.09037,1.184273 -0.193671,1.724707 -1.642652,3.12539 -1.412696,1.365608 -1.86571,2.183088 -1.991308,3.593391 -0.03143,0.352924 -0.0118,0.913029 0.04362,1.244677 z m 1.935172,-2.090246 c 0.194525,-0.607393 0.548593,-1.081089 1.558295,-2.084797 1.628976,-1.619306 1.937578,-2.186624 1.937578,-3.561939 0,-1.371116 -0.311026,-1.945044 -1.921824,-3.546279 -1.467546,-1.458834 -1.702715,-1.921338 -1.701377,-3.3460737 0.0014,-1.4424132 0.549156,-2.5876437 1.869611,-3.9086021 1.186995,-1.1874456 3.276835,-2.392428 5.327611,-3.0718485 2.321843,-0.7692249 5.504458,-1.14172646 6.68792,-0.7827705 1.610393,0.4884494 2.531819,2.2843667 2.735839,5.332322 0.105524,1.5764921 -10e-4,2.1145901 -1.18875,6.0016068 -0.531806,1.740468 -0.619936,2.342418 -0.548907,3.749172 0.06704,1.327805 0.171285,1.790942 0.965754,4.290718 0.679966,2.139494 0.747241,2.506202 0.747883,4.076563 0.0013,3.20604 -0.978458,5.322571 -2.711819,5.858184 -0.573308,0.177154 -1.586045,0.184312 -3.012261,0.02129 -4.975857,-0.568759 -9.425921,-3.159293 -10.593073,-6.166589 -0.305066,-0.786033 -0.378105,-2.156462 -0.15248,-2.860957 z m 5.595833,2.581883 c 0.653374,2.162218 2.573682,3.299576 4.540937,2.689497 1.037993,-0.321898 1.828879,-1.118573 2.332706,-2.349784 0.358808,-0.876823 0.364709,-2.594193 0.01212,-3.528016 -0.594987,-1.575817 -1.875607,-2.549083 -3.354076,-2.549083 -1.665532,0 -3.019372,1.120805 -3.541556,2.931953 -0.195685,0.678719 -0.190539,2.14223 0.0099,2.805433 z m 1.922797,-2.981931 c 0.363113,-0.89179 1.02341,-1.547584 1.558211,-1.547584 0.573286,0 1.306464,0.73292 1.640916,1.640339 0.264496,0.717616 0.258172,2.226413 -0.01227,2.926922 -0.246675,0.638953 -0.677115,1.194123 -1.116935,1.440591 -0.420527,0.235658 -0.559204,0.229976 -1.024258,-0.04196 -0.476014,-0.278344 -0.962491,-0.985085 -1.164877,-1.692306 -0.193897,-0.677557 -0.131212,-2.110972 0.11921,-2.726003 z M 19.056656,10.294118 c 0.02947,0.08304 0.135144,0.388783 0.234826,0.679427 0.372895,1.087253 1.355848,2.080072 2.363675,2.387398 0.579301,0.176652 1.4603,0.176797 2.040382,3.02e-4 0.984773,-0.299569 1.841091,-1.173361 2.33998,-2.387733 0.205567,-0.500382 0.248109,-0.804569 0.248109,-1.7740587 0,-1.3145275 -0.195002,-1.9731628 -0.84701,-2.8608481 -1.369379,-1.8643598 -4.134606,-1.8626378 -5.563725,-0.051425 -0.67874,0.8602093 -0.685966,0.8479169 -0.866099,2.4893851 -0.08829,0.804538 0.02039,1.4344787 0.04986,1.5175197 z m 1.913577,-2.2604316 c 0.213384,-0.7427378 0.675138,-1.4219137 1.159136,-1.7049261 0.46846,-0.273927 0.602888,-0.2780888 1.041586,-0.032249 0.814758,0.4565796 1.306033,1.5513936 1.302647,2.902974 -0.0034,1.3656117 -0.423316,2.3476287 -1.23493,2.8881467 -0.500208,0.333129 -0.91832,0.273793 -1.398001,-0.198394 -0.911524,-0.897282 -1.267426,-2.4737297 -0.870438,-3.8555516 z"
     id="path1"
     sodipodi:nodetypes="csscccsssssscssssssssssscsssscsssscssssssssssssssssssssssscsscsssssccsssssssss" /></svg>
